<?xml version="1.0" standalone="no"?>
<!DOCTYPE svg PUBLIC "-//W3C//DTD SVG 20010904//EN"
 "http://www.w3.org/TR/2001/REC-SVG-20010904/DTD/svg10.dtd">
<svg version="1.0" xmlns="http://www.w3.org/2000/svg"
 width="500.000000pt" height="500.000000pt" viewBox="0 0 500.000000 500.000000"
 preserveAspectRatio="xMidYMid meet">

<g transform="translate(0.000000,500.000000) scale(0.100000,-0.100000)"
fill="#000000" stroke="none">
<path d="M910 3540 l0 -60 375 0 375 0 2 -392 3 -393 58 -3 57 -3 0 395 0 396
348 2 347 3 3 58 3 57 -786 0 -785 0 0 -60z"/>
<path d="M2762 3148 l3 -453 63 -3 62 -3 0 396 0 395 555 0 555 0 0 60 0 60
-620 0 -620 0 2 -452z"/>
<path d="M2714 2600 c-35 -14 -54 -50 -54 -103 0 -38 5 -53 25 -72 27 -28 82
-34 104 -12 11 10 14 10 18 0 12 -32 24 -8 21 40 l-3 52 -37 3 c-22 2 -38 -1
-38 -7 0 -6 11 -11 25 -11 29 0 32 -16 9 -48 -18 -27 -55 -29 -77 -4 -19 21
-23 92 -7 123 14 26 66 26 82 -1 15 -23 38 -27 38 -7 0 34 -67 64 -106 47z"/>
<path d="M3174 2600 c-35 -14 -54 -50 -54 -103 0 -61 31 -97 85 -97 56 0 85
35 85 102 -1 56 -11 77 -47 96 -25 14 -40 14 -69 2z m73 -32 c27 -34 21 -121
-9 -140 -21 -13 -50 -9 -70 9 -20 18 -25 91 -8 124 12 22 71 27 87 7z"/>
<path d="M3424 2600 c-35 -14 -54 -50 -54 -103 0 -61 31 -97 85 -97 56 0 85
35 85 102 -1 56 -11 77 -47 96 -25 14 -40 14 -69 2z m73 -32 c27 -34 21 -121
-9 -140 -21 -13 -50 -9 -70 9 -20 18 -25 91 -8 124 12 22 71 27 87 7z"/>
<path d="M1200 2590 c0 -5 14 -10 30 -10 l30 0 0 -90 c0 -73 3 -90 15 -90 12
0 15 17 15 90 l0 90 30 0 c17 0 30 5 30 10 0 6 -32 10 -75 10 -43 0 -75 -4
-75 -10z"/>
<path d="M1430 2500 c0 -82 3 -100 15 -100 11 0 15 12 15 45 0 41 2 45 25 45
19 0 28 -9 44 -45 11 -25 25 -45 30 -45 14 0 14 2 -6 51 -15 39 -15 42 0 51
20 11 23 68 5 86 -7 7 -38 12 -70 12 l-58 0 0 -100z m111 64 c20 -24 -1 -48
-45 -52 -35 -3 -36 -2 -36 32 0 34 2 36 34 36 18 0 39 -7 47 -16z"/>
<path d="M1660 2500 l0 -100 70 0 c40 0 70 4 70 10 0 6 -25 10 -55 10 l-55 0
0 35 c0 35 0 35 45 35 57 0 59 18 3 22 -40 3 -43 5 -46 36 l-3 32 50 0 c28 0
51 5 51 10 0 6 -28 10 -65 10 l-65 0 0 -100z"/>
<path d="M1880 2500 l0 -100 65 0 c37 0 65 4 65 10 0 6 -22 10 -50 10 l-50 0
0 90 c0 73 -3 90 -15 90 -12 0 -15 -18 -15 -100z"/>
<path d="M2090 2500 l0 -100 60 0 c71 0 81 18 13 22 l-48 3 -3 88 c-4 121 -22
111 -22 -13z"/>
<path d="M2290 2500 c0 -82 3 -100 15 -100 12 0 15 18 15 100 0 82 -3 100 -15
100 -12 0 -15 -18 -15 -100z"/>
<path d="M2410 2500 c0 -81 3 -100 15 -100 11 0 15 18 17 78 l3 77 53 -77 c29
-43 57 -78 62 -78 6 0 10 42 10 100 0 118 -18 136 -22 23 l-3 -77 -50 77 c-71
109 -85 106 -85 -23z"/>
<path d="M2920 2500 c0 -82 3 -100 15 -100 11 0 15 12 15 45 l0 45 45 0 c25 0
45 5 45 10 0 6 -20 10 -45 10 -45 0 -45 0 -45 35 l0 35 50 0 c28 0 50 5 50 10
0 6 -28 10 -65 10 l-65 0 0 -100z"/>
<path d="M3630 2500 l0 -100 44 0 c33 0 52 7 75 26 27 22 31 32 31 75 0 70
-30 99 -100 99 l-50 0 0 -100z m102 63 c49 -58 15 -143 -58 -143 -11 0 -14 17
-14 80 l0 80 28 0 c16 0 36 -8 44 -17z"/>
<path d="M1667 2303 c-4 -3 -7 -206 -7 -450 l0 -443 60 0 60 0 0 450 0 450
-53 0 c-30 0 -57 -3 -60 -7z"/>
<path d="M2767 2303 c-4 -3 -7 -206 -7 -450 l0 -443 65 0 65 0 0 450 0 450
-58 0 c-32 0 -62 -3 -65 -7z"/>
</g>
</svg>
