<svg width="2474" height="50" viewBox="0 0 2474 50" fill="none" xmlns="http://www.w3.org/2000/svg">
<path fill-rule="evenodd" clip-rule="evenodd" d="M0.462646 10.0488H7.17353V28.0592C7.17353 30.9094 8.47731 32.6073 9.50828 33.3351C8.41681 34.3053 5.08146 35.1543 2.59513 33.0924C1.12927 31.877 0.462646 29.8785 0.462646 27.9985V10.0488ZM42.403 25.0096V23.1169H44.4497V16.4768H42.2021C41.3392 12.4902 37.79 9.50293 33.5453 9.50293C28.6555 9.50293 24.6917 13.4669 24.6917 18.3566V33.8633C26.0848 34.059 27.7444 33.8389 29.1565 32.668C30.6221 31.4524 31.2887 29.4541 31.2887 27.5741V27.0028H34.6404V20.3627H31.2887V18.3566H31.2968C31.2968 17.1148 32.3034 16.1082 33.5453 16.1082C34.7871 16.1082 35.7977 17.1148 35.7977 18.3566V25.0096C35.7977 29.8992 39.7657 33.8633 44.6554 33.8633V27.258C43.4136 27.258 42.403 26.2513 42.403 25.0096ZM16.9865 16.4768V26.2219C16.9865 26.7751 16.5275 27.2236 15.9611 27.2236C15.3947 27.2236 14.9357 26.7751 14.9357 26.2219V16.4768H8.29536V27.938C8.29536 29.9997 8.99458 32.6073 12.1766 33.4563C15.3619 34.3062 17.2097 32.5468 17.2097 32.5468C17.0414 33.7059 15.9497 34.5549 14.1912 34.7368C12.8606 34.8744 11.159 34.4337 10.3102 34.0698V40.1419C12.473 40.7798 14.7607 40.9858 16.9994 40.5514C21.0623 39.7631 23.6266 36.3672 23.6266 31.8493V16.4768H16.9865Z" fill="#9193A8"/>
<g clip-path="url(#clip0_7565_27778)">
<path d="M130.812 11.8838C126.856 11.8838 122.956 13.6092 122.956 18.3192C122.956 25.2949 132.806 23.6323 132.806 27.648C132.806 29.5502 130.524 30.3625 128.819 30.3625C127.049 30.3625 124.859 29.847 123.315 29.0633V32.8659C125.535 33.3795 126.63 33.6782 129.076 33.6782C133.61 33.6782 137.494 31.9281 137.494 27.3074C137.494 20.2405 127.662 21.7966 127.662 18.1422C127.662 15.8463 129.663 15.2013 131.207 15.2013C132.783 15.2013 134.733 15.618 136.148 16.1924L136.182 12.6333C134.538 12.1178 132.741 11.8838 130.812 11.8838ZM157.431 17.9292C154.152 17.9292 151.125 19.3711 151.125 22.6259C151.125 28.0798 158.403 26.0519 158.403 29.0119C158.403 30.4786 156.703 30.8647 155.642 30.8647C154.205 30.8647 152.847 30.4881 151.534 29.8736L151.279 33.0923C152.809 33.4727 154.423 33.7428 156.017 33.7428C159.422 33.7428 162.765 32.3371 162.765 28.8179C162.765 23.364 155.488 24.884 155.488 22.4795C155.488 21.1898 156.835 20.8055 157.96 20.8055C159.49 20.8055 160.651 21.0452 161.931 21.456L161.983 18.498C160.671 18.2336 159.398 17.9292 157.431 17.9292ZM171.882 17.9292C166.855 17.9292 164.094 21.3933 164.094 25.7628C164.094 30.3663 166.757 33.7428 172.035 33.7428C173.753 33.7428 174.994 33.5907 176.211 33.2388L176.023 29.9877C175.305 30.2807 174.006 30.6859 172.819 30.6859C169.885 30.6859 168.475 28.5477 168.475 25.7609C168.475 22.917 170.124 20.9824 172.718 20.9824C173.996 20.9824 174.814 21.2126 175.564 21.534L175.939 18.4295C174.783 18.1099 173.57 17.9292 171.882 17.9292ZM185.09 17.9292C180.344 17.9292 176.687 20.9558 176.687 25.9416C176.687 30.2807 179.781 33.7428 185.09 33.7428C190.43 33.7428 193.526 30.2826 193.526 25.9416C193.526 20.9558 189.868 17.9292 185.09 17.9292ZM193.474 17.9292C192.758 17.9292 192.196 18.46 192.196 19.1163C192.196 19.7801 192.756 20.3185 193.474 20.3185C194.191 20.3185 194.769 19.7783 194.769 19.1163C194.769 18.46 194.2 17.9292 193.49 17.9292H193.474ZM147.343 18.0757L139.35 38.8277H143.184L151.586 18.0757H147.343ZM193.474 18.2222C194.003 18.2222 194.378 18.6179 194.378 19.1163C194.378 19.6147 193.997 20.0331 193.474 20.0256C192.952 20.0256 192.57 19.6222 192.57 19.1315C192.573 18.6274 192.968 18.2222 193.474 18.2222ZM193.474 18.5456C193.235 18.5456 193.043 18.5798 192.964 18.595V19.6831H193.321V19.2761H193.44C193.556 19.2761 193.606 19.3445 193.628 19.4549C193.65 19.5519 193.678 19.6413 193.713 19.6831H194.105C194.083 19.6413 194.072 19.5823 194.037 19.4225C194.001 19.2627 193.929 19.1809 193.797 19.1467V19.1296C193.957 19.0877 194.053 18.9793 194.053 18.8689C194.053 18.7586 194.005 18.6901 193.933 18.6407C193.847 18.5893 193.736 18.5456 193.474 18.5456ZM193.339 18.7891C193.366 18.7891 193.414 18.7891 193.458 18.7891C193.582 18.7891 193.664 18.829 193.664 18.9184C193.664 18.9945 193.572 19.0478 193.443 19.0478H193.341V18.7891H193.339ZM185.09 20.9843C187.837 20.9843 189.146 23.1529 189.146 25.4699C189.146 27.9923 188.306 30.6859 185.09 30.6859C181.904 30.6859 181.068 27.9619 181.068 25.4699C181.068 23.2118 182.373 20.9843 185.09 20.9843Z" fill="#9193A8"/>
<path d="M134.943 17.9273C136.665 19.5899 138.383 21.6182 139.627 23.9957C140.741 26.1238 141.303 28.1982 141.705 30.2857C141.721 30.3596 141.773 30.354 141.802 30.2968C143.284 27.8288 144.191 24.4685 142.864 21.9359C141.475 19.2795 138.133 18.0566 134.999 17.8109C134.888 17.8054 134.869 17.8608 134.943 17.9273Z" fill="#9193A8"/>
</g>
<g clip-path="url(#clip1_7565_27778)">
<path d="M296.052 33.1752H281.15L284.566 28.0179H293.823L297.204 22.8795H276.551L273.186 28.0179H278.142L271.393 38.3178H299.138L309.675 22.1607L313.487 28.0113H310.199L306.838 33.176H316.864L320.237 38.3178H326.633L309.675 12.3936L296.052 33.1752ZM283.274 12.5846L279.921 17.723L301.828 17.7156L305.185 12.5846H283.274Z" fill="#9193A8"/>
<path d="M313.258 12.584V12.8738H313.951V14.2949H314.294V12.8746H314.988V12.584H313.258Z" fill="#9193A8"/>
<path d="M317.067 12.584L316.387 13.6025L315.694 12.584H315.394V14.2899H315.694V13.2361L315.663 13.0517L315.768 13.2237L316.332 14.0825H316.393L316.958 13.2353L317.037 13.0517V13.2353V14.2891H317.344V12.584H317.067Z" fill="#9193A8"/>
</g>
<path d="M408.262 33.5711H417.667L412.965 25.4268L408.262 33.5711Z" fill="#535462"/>
<path d="M408.262 17.2832L422.368 25.427L417.667 17.2832H408.262Z" fill="#9193A8"/>
<path d="M417.666 33.5714L422.368 25.427L408.262 17.2832L417.666 33.5714Z" fill="#7F8094"/>
<path d="M441.203 28.9203H439.856V21.9356H441.203C443.264 21.9356 444.222 23.0759 444.222 25.3435C444.222 27.6759 443.264 28.9203 441.203 28.9203ZM441.268 20.1338H437.484V30.7218H441.268C444.741 30.7218 446.529 28.9071 446.529 25.3435C446.529 21.8191 444.741 20.1338 441.268 20.1338Z" fill="#9193A8"/>
<path d="M433.117 20.1338L433.117 26.1406L432.021 24.2417H428.789V20.1338H426.443V30.7207H428.789V26.2894H433.117V30.7207H435.476V20.1338H433.117Z" fill="#9193A8"/>
<path d="M449.809 20.1445H450.817V21.904H452.287L452.671 22.7727V20.1445H453.679V24.694H452.671V22.784H450.817V24.694H449.809V20.1445Z" fill="#9193A8"/>
<path d="M455.839 22.9731L454.102 20.1445H455.255L456.363 22.0935L457.471 20.1445H458.545L456.847 22.9622V24.699H455.839V22.9731Z" fill="#9193A8"/>
<path d="M458.969 22.8843V20.1445H459.972V22.8008C459.972 23.5133 460.261 23.9647 460.907 23.9647C461.525 23.9647 461.837 23.5133 461.837 22.8008V20.1445H462.845V22.8843C462.845 24.0147 462.199 24.7884 460.907 24.7884C459.587 24.7884 458.969 24.0147 458.969 22.8843Z" fill="#9193A8"/>
<path d="M463.652 20.1445H464.487L466.514 22.8955V20.1445H467.517V24.6998H466.687L464.654 21.9155V24.694H463.652V20.1445Z" fill="#9193A8"/>
<path d="M469.983 23.8696C470.869 23.8696 471.142 23.3739 471.142 22.383C471.142 21.4197 470.869 20.9684 469.983 20.9684H469.338V23.8696H469.983ZM472.133 22.383C472.133 23.9141 471.503 24.6933 470.011 24.6933H468.33V20.1445H470.011C471.503 20.1445 472.133 20.8687 472.133 22.383Z" fill="#9193A8"/>
<path d="M474.894 23.0016L474.237 21.2308L473.63 23.0016H474.894ZM473.758 20.1338H474.76L476.57 24.6947H475.518L475.189 23.8093H473.836L473.625 23.0241L473.051 24.6947H472.015L473.758 20.1338Z" fill="#9193A8"/>
<path d="M477.032 20.1445H478.04V24.694H477.032V20.1445Z" fill="#9193A8"/>
<path d="M449.809 26.168H450.82V27.9315H452.293L452.678 28.8022V26.168H453.688V30.7277H452.678V28.8132H450.82V30.7277H449.809V26.168Z" fill="#9193A8"/>
<path d="M454.443 26.168H457.568V27.0331H455.447V27.943H457.116L457.423 28.8248H455.447V29.8626H457.613V30.7277H454.443V26.168Z" fill="#9193A8"/>
<path d="M460.683 29.0314L460.024 27.2568L459.416 29.0314H460.683ZM459.533 26.1572H460.56L462.379 30.728H461.308L460.978 29.8404H459.684L459.404 29.0706L458.836 30.728H457.797L459.533 26.1572Z" fill="#9193A8"/>
<path d="M462.619 26.168L463.825 29.366L465.058 26.168H466.063L464.182 30.7277H463.406L461.497 26.168H462.619Z" fill="#9193A8"/>
<path d="M467.794 29.0034L466.052 26.168H467.208L468.318 28.1216L469.43 26.168H470.507L468.804 28.9925V30.7336H467.794V29.0034Z" fill="#9193A8"/>
<path d="M471.885 26.168H472.895V30.7277H471.885V26.168Z" fill="#9193A8"/>
<path d="M473.683 26.168H474.52L476.552 28.9251V26.168H477.556V30.7335H476.724L474.687 27.943V30.7277H473.683V26.168Z" fill="#9193A8"/>
<path d="M479.974 29.9018C480.861 29.9018 481.135 29.4051 481.135 28.4115C481.135 27.4462 480.861 26.9938 479.974 26.9938H479.326V29.9018H479.974ZM482.128 28.4115C482.128 29.9463 481.497 30.7277 480.001 30.7277H478.316V26.168H480.001C481.497 26.168 482.128 26.8936 482.128 28.4115Z" fill="#9193A8"/>
<path d="M482.725 28.914V26.168H483.73V28.8306C483.73 29.5445 484.02 29.997 484.667 29.997C485.287 29.997 485.6 29.5445 485.6 28.8306V26.168H486.61V28.914C486.61 30.0471 485.963 30.8228 484.667 30.8228C483.345 30.8228 482.725 30.0471 482.725 28.914Z" fill="#9193A8"/>
<path d="M488.876 30.0123C489.384 30.0123 489.669 29.8002 489.669 29.4485C489.669 29.1363 489.446 28.9684 488.999 28.8569L488.519 28.7397C487.738 28.5502 487.174 28.1536 487.174 27.4114C487.174 26.68 487.827 26.083 488.932 26.083C489.97 26.083 490.59 26.5908 490.679 27.3053L489.663 27.5283C489.63 27.1043 489.367 26.8645 488.932 26.8645C488.513 26.8645 488.218 27.0766 488.218 27.3833C488.218 27.6961 488.419 27.8246 488.876 27.9359L489.362 28.0534C490.233 28.2654 490.713 28.6614 490.713 29.4211C490.713 30.2301 490.071 30.8271 488.876 30.8271C487.827 30.8271 487.218 30.3304 487.034 29.538L488.078 29.2977C488.134 29.6831 488.413 30.0123 488.876 30.0123Z" fill="#9193A8"/>
<path d="M490.892 26.168H494.676V27.0331H493.275V30.7277H492.265V27.0331H490.892V26.168Z" fill="#9193A8"/>
<path d="M495.134 26.168H497.01C498.182 26.168 498.751 26.8324 498.751 27.6859C498.751 28.4005 498.349 28.8748 497.651 29.0703L498.907 30.7277L497.791 30.7388L496.2 28.4617H496.853C497.478 28.4617 497.757 28.1602 497.757 27.7084C497.757 27.2842 497.473 27.0106 496.837 27.0106H496.133V30.7277H495.134V26.168Z" fill="#9193A8"/>
<path d="M499.36 26.168H500.37V30.7277H499.36V26.168Z" fill="#9193A8"/>
<path d="M501.157 26.168H504.282V27.0331H502.162V27.943H503.83L504.138 28.8248H502.162V29.8626H504.327V30.7277H501.157V26.168Z" fill="#9193A8"/>
<path d="M506.426 30.0123C506.934 30.0123 507.219 29.8002 507.219 29.4485C507.219 29.1363 506.996 28.9684 506.549 28.8569L506.069 28.7397C505.288 28.5502 504.724 28.1536 504.724 27.4114C504.724 26.68 505.377 26.083 506.482 26.083C507.52 26.083 508.14 26.5908 508.229 27.3053L507.213 27.5283C507.18 27.1043 506.917 26.8645 506.482 26.8645C506.063 26.8645 505.768 27.0766 505.768 27.3833C505.768 27.6961 505.969 27.8246 506.426 27.9359L506.912 28.0534C507.769 28.2621 508.247 28.6492 508.262 29.3856V29.4461C508.249 30.2426 507.608 30.8271 506.426 30.8271C505.377 30.8271 504.768 30.3304 504.584 29.538L505.628 29.2977C505.684 29.6831 505.963 30.0123 506.426 30.0123Z" fill="#9193A8"/>
<path d="M720.138 10.4707H667.663C666.723 10.4707 665.399 10.4563 663.989 11.8652C662.65 13.2165 663.063 14.5391 660.856 14.5391H653.195C651.002 14.5391 651.401 13.2165 650.062 11.8652C648.666 10.4563 647.342 10.4707 646.402 10.4707H593.927C592.119 10.4707 591.336 12.0808 592.19 13.5184L593.144 15.1141C593.657 15.9911 594.326 16.1205 594.81 16.2211C595.266 16.3073 595.537 16.3648 595.878 16.983L596.718 18.4637C597.359 19.6713 598.128 19.8151 598.698 19.9157C599.154 20.002 599.552 20.0451 600.122 21.0658C600.72 22.1727 601.546 23.5816 603.454 24.1566L623.063 29.9214C625.099 30.5826 625.626 31.3446 626.224 32.2215C626.537 32.6815 627.506 34.3348 630.154 35.0536L648.795 40.1426C650.546 40.6171 651.771 39.9414 652.611 39.1795L655.986 35.9449C656.855 35.1111 657.225 35.1111 658.093 35.9449L661.468 39.1795C662.323 39.9414 663.533 40.6171 665.285 40.1426L683.925 35.0536C686.574 34.3348 687.542 32.6815 687.855 32.2215C688.453 31.3446 688.98 30.597 691.017 29.9214L710.625 24.1566C712.534 23.5816 713.359 22.1727 713.958 21.0658C714.513 20.0451 714.926 20.002 715.382 19.9157C715.951 19.8007 716.72 19.6569 717.361 18.4637L718.201 16.983C718.543 16.3648 718.828 16.3073 719.269 16.2211C719.753 16.1205 720.423 15.9911 720.935 15.1141L721.889 13.5184C722.729 12.0808 721.946 10.4707 720.138 10.4707ZM593.956 13.7628L593.386 12.7996C593.215 12.5121 593.101 11.8652 593.913 11.8652H646.402C647.456 11.8652 648.652 11.8508 649.806 13.8778C649.962 14.1509 650.133 14.4528 650.361 14.7404H597.174C595.01 14.7404 594.597 14.7404 593.956 13.7484M628.004 15.8042H686.09V24.9904H627.99V15.8186L628.004 15.8042ZM598.114 18.0756C597.616 17.5724 597.302 16.5517 596.861 15.9336L626.95 15.8042V17.1411L601.475 18.6506C599.51 18.78 598.684 18.665 598.114 18.09M602.058 21.5833C601.774 21.2095 601.546 20.807 601.318 20.4045C601.204 20.2032 601.09 20.0163 600.99 19.8582C601.361 19.8438 601.432 19.8294 602.101 19.7863L626.95 18.2337V19.6713L607.313 21.7989C604.664 22.0865 602.87 22.489 602.044 21.5833M608.766 24.286C607.327 23.8691 606.074 23.4953 605.191 23.2365C607.569 22.949 626.936 20.7639 626.936 20.7639V22.3596L614.348 24.401C612.895 24.631 611.144 24.9329 608.766 24.286M617.481 26.8593C616.213 26.4855 614.86 26.083 613.493 25.6805C613.864 25.6229 614.091 25.5942 614.519 25.5223C615.786 25.3067 626.922 23.4378 626.922 23.4378V25.1485C626.922 25.1485 622.279 26.4711 622.251 26.4855C622.208 26.4855 619.346 27.3624 617.481 26.8593ZM623.404 28.5988C623.219 28.5413 622.365 28.2969 621.112 27.9231C621.923 27.765 622.436 27.6068 622.55 27.5637C622.621 27.535 627.62 26.0686 627.62 26.0686H633.287L628.033 28.5413C626.352 29.2026 624.871 29.0013 623.376 28.5988M628.616 32.8684C627.976 32.4371 627.648 31.9627 627.292 31.4452C626.993 31.0139 626.68 30.5539 626.196 30.1082C626.324 30.1082 626.836 30.0651 627.434 29.9214C628.061 29.7776 629.414 29.1738 629.414 29.1738L635.722 26.083H639.923L631.664 31.9915C630.396 32.8253 629.385 33.1272 628.616 32.8828M634.854 34.9242L630.809 33.8172C631.365 33.5872 631.892 33.2853 632.319 32.9978C632.746 32.7247 632.248 33.0697 641.845 26.083H645.363L638.898 32.7678C637.759 33.9466 636.505 35.2548 634.868 34.9242M641.247 36.6637L637.445 35.6286C638.485 35.0104 639.41 33.9897 639.766 33.616L646.958 26.083H650.119L644.394 35.1254C643.455 36.563 642.372 36.8793 641.247 36.678M647.926 38.5038L643.868 37.3968C644.067 37.2675 644.779 36.8218 645.462 35.7292L651.472 26.0974H654.192C654.192 26.0974 650.66 36.5199 650.418 37.0518C649.72 38.5757 648.909 38.7051 647.926 38.5038M662.365 38.1731L659.005 34.9673C657.595 33.6304 656.399 33.6304 655.003 34.9673L651.643 38.1731C651.386 38.4032 651.13 38.5757 650.874 38.7051C651.5 37.9288 651.856 36.8362 652.098 36.1174L655.416 26.083H658.592L661.91 36.1174C662.152 36.8649 662.508 37.9288 663.134 38.7051C662.878 38.5757 662.622 38.4032 662.365 38.1731M666.082 38.5038C665.1 38.7051 664.288 38.59 663.59 37.0518C663.348 36.5199 659.817 26.0974 659.817 26.0974H662.536L668.546 35.7292C669.229 36.8218 669.941 37.2818 670.141 37.3968L666.082 38.5038V38.5038ZM672.761 36.678C671.65 36.8793 670.568 36.5774 669.614 35.1254L663.889 26.083H667.051L674.242 33.616C674.598 33.9897 675.523 35.0104 676.563 35.6286L672.761 36.6637V36.678ZM679.14 34.9386C677.489 35.2548 676.25 33.9466 675.11 32.7822L668.645 26.0974H672.163C672.163 26.0974 681.262 32.739 681.689 33.0122C682.117 33.2997 682.643 33.6016 683.199 33.8316L679.155 34.9386H679.14ZM686.688 31.4596C686.332 31.9771 686.004 32.4515 685.363 32.8828C684.594 33.1416 683.583 32.8253 682.316 31.9915C681.96 31.7615 674.057 26.083 674.057 26.083H678.257C678.257 26.083 683.113 28.4981 684.566 29.1738C685.378 29.5476 686.417 30.0364 687.784 30.1082C687.3 30.5539 686.972 31.0139 686.688 31.4452M690.604 28.5988C689.108 29.0013 687.628 29.2026 685.947 28.5413C685.349 28.3113 680.693 26.0686 680.693 26.0686H686.36C686.36 26.0686 691.358 27.5493 691.43 27.5637C691.558 27.6068 692.056 27.765 692.868 27.9231C691.615 28.2969 690.76 28.5413 690.575 28.5988M696.499 26.8593C694.634 27.3768 691.729 26.4855 691.729 26.4855C691.7 26.4855 687.058 25.1485 687.058 25.1485V23.4378C687.058 23.4378 698.208 25.3067 699.461 25.5223C699.874 25.5942 700.116 25.6373 700.486 25.6805C699.134 26.083 697.766 26.4855 696.499 26.8593M705.214 24.286C702.836 24.9185 701.084 24.631 699.632 24.401C698.379 24.1997 687.044 22.3596 687.044 22.3596V20.7639L708.788 23.2365C707.905 23.4953 706.652 23.8691 705.214 24.286M712.676 20.4045C712.462 20.807 712.22 21.2095 711.935 21.5833C711.124 22.489 709.315 22.0865 706.667 21.7989L687.029 19.6713V18.2337C687.029 18.2337 711.565 19.7576 711.878 19.7863C712.562 19.8294 712.633 19.8438 712.989 19.8582C712.875 20.0163 712.761 20.2032 712.662 20.4045M715.481 18.2625C714.527 18.8806 713.431 18.7081 710.198 18.5069L687.029 17.1555V15.8186L717.119 15.9479C716.507 16.8249 716.336 17.7162 715.481 18.2625ZM720.593 12.7996L720.024 13.7628C719.383 14.7691 718.956 14.7547 716.806 14.7547H663.704C663.932 14.4672 664.103 14.1653 664.259 13.8922C665.413 11.8652 666.609 11.8796 667.663 11.8796H720.152C720.964 11.8796 720.85 12.5265 720.679 12.814M661.397 23.179C661.255 21.5258 661.169 20.5482 661.098 19.8726C660.215 21.4971 659.831 22.259 659.475 23.0928H659.119C658.236 21.2814 658.136 21.0658 657.88 20.5914C657.794 20.4332 657.695 20.2463 657.524 19.9013C657.453 20.5626 657.31 21.8421 657.225 23.1647H656.313C656.57 21.2527 656.997 18.0037 657.025 17.7306H657.581C657.581 17.7306 658.877 20.347 659.446 21.3389C660.101 20.117 660.529 19.2544 661.383 17.7306H661.881C661.967 18.5069 662.252 20.9939 662.522 23.1647H661.397V23.179ZM677.987 17.7449H676.919V23.179H677.987V17.7449ZM674.783 23.179V18.55C675.58 18.55 676.008 18.6219 676.378 18.665V17.7449H672.049V18.665C672.504 18.6219 672.96 18.5644 673.729 18.55V23.179H674.797H674.783ZM641.19 23.179V18.55C641.988 18.55 642.415 18.6219 642.785 18.665V17.7449H638.456V18.665C638.912 18.6219 639.368 18.5644 640.137 18.55V23.179H641.205H641.19ZM653.636 23.179V17.7449H652.796V21.2527L649.592 17.7449H648.994V23.179H649.834V19.5132L653.095 23.179H653.636ZM634.911 21.6552V22.8628C635.238 23.0784 635.665 23.3228 636.377 23.3228C637.531 23.3228 638.57 22.6615 638.57 21.5402C638.57 21.1808 638.456 20.5339 637.645 20.1601C636.975 19.8438 636.534 19.7863 636.235 19.5276C635.708 19.0675 636.135 18.3487 636.861 18.3487C637.075 18.3487 637.616 18.4062 637.773 18.9525H638.171V17.9606C637.787 17.7881 637.317 17.6156 636.833 17.6156C636.391 17.6156 635.979 17.7449 635.651 17.9893C634.825 18.5931 634.597 19.8294 635.765 20.5339C636.491 20.9795 637.488 20.922 637.516 21.7271C637.531 22.3309 636.975 22.5465 636.548 22.5465C635.708 22.5465 635.437 21.7989 635.366 21.6408H634.925L634.911 21.6552ZM634.882 23.179L632.518 17.6443H632.077L629.627 23.179H630.638C630.767 22.7334 630.866 22.4027 631.165 21.6552H633.074C633.316 22.2446 633.501 22.7909 633.643 23.179H634.882V23.179ZM631.464 20.9364C631.578 20.6633 631.607 20.6201 632.134 19.355C632.646 20.5482 632.689 20.6345 632.803 20.9364H631.464V20.9364ZM648.296 20.462C648.296 18.55 646.886 17.558 645.505 17.558C644.124 17.558 642.714 18.5356 642.714 20.462C642.714 22.3884 644.124 23.3659 645.505 23.3659C646.886 23.3659 648.296 22.3884 648.296 20.462ZM645.505 22.6471C644.651 22.6471 643.896 21.8421 643.896 20.462C643.896 19.0819 644.708 18.2768 645.505 18.2768C646.303 18.2768 647.114 19.0244 647.114 20.462C647.114 21.8996 646.303 22.6471 645.505 22.6471ZM668.218 23.179H669.272V20.9364H669.543L671.337 23.179H672.647L670.639 20.7926C670.924 20.6776 671.166 20.5339 671.351 20.347C671.906 19.7863 671.963 18.8375 671.351 18.2193C671.038 17.9031 670.682 17.7162 669.756 17.7162C669.756 17.7162 668.531 17.7162 668.204 17.7449V23.179H668.218ZM669.272 18.4062C669.4 18.3919 669.528 18.3775 669.642 18.3775C670.739 18.3775 670.767 19.1969 670.767 19.3119C670.767 19.8726 670.269 20.4045 669.272 20.232V18.4062ZM667.948 23.179L665.584 17.6443H665.142L662.693 23.179H663.704C663.832 22.7334 663.932 22.4027 664.231 21.6552H666.139C666.381 22.2446 666.566 22.7909 666.709 23.179H667.948ZM664.53 20.9364C664.644 20.6633 664.672 20.6201 665.199 19.355C665.712 20.5482 665.755 20.6345 665.869 20.9364H664.53ZM683.711 23.179V17.7449H682.871V21.2527L679.667 17.7449H679.069V23.179H679.909V19.5132L683.17 23.179H683.711Z" fill="#9193A8"/>
<path fill-rule="evenodd" clip-rule="evenodd" d="M799.769 31.9539H802.855V22.8641C802.855 22.4518 802.817 21.4902 802.703 19.9587C802.875 20.9209 803.102 21.7157 803.255 22.3536L805.557 31.9532H808.719L811.078 22.1958C811.243 21.5151 811.478 20.7826 811.649 19.958C811.554 20.9396 811.497 21.8825 811.497 22.8046V31.9532H814.811V18.3295H809.516L807.709 26.4371C807.589 26.9753 807.405 27.7915 807.309 28.9302C807.252 27.9292 807.126 27.1212 806.947 26.5152L804.528 18.3289H799.769V31.9539Z" fill="#9193A8"/>
<path fill-rule="evenodd" clip-rule="evenodd" d="M825.605 18.3522C824.572 18.0002 823.618 17.8242 822.745 17.8242C819.071 17.8242 816.886 19.8768 816.886 23.1407C816.886 26.2876 819.15 28.4215 822.467 28.4215C823.718 28.4215 824.81 28.2648 825.704 27.9491L825.625 25.3101C824.969 25.7013 824.274 25.8965 823.5 25.8965C821.652 25.8965 820.501 24.7829 820.501 23.1207C820.501 21.4201 821.593 20.3257 823.34 20.3257C823.996 20.3257 824.671 20.5017 825.366 20.8729L825.605 18.3522Z" fill="#9193A8"/>
<path fill-rule="evenodd" clip-rule="evenodd" d="M827.779 18.3289V31.9539H831.568V25.6322L836.034 31.9539H840.746L834.989 24.5917L840.213 18.3289H835.972L831.568 24.2189V18.3289H827.779Z" fill="#9193A8"/>
<path fill-rule="evenodd" clip-rule="evenodd" d="M842.302 18.3289V31.9539H852.157V29.323H846.001V26.2209H851.597V23.6301H846.001V20.8816H851.938V18.3289H842.302Z" fill="#9193A8"/>
<path fill-rule="evenodd" clip-rule="evenodd" d="M864.956 18.8143C863.743 18.4843 862.469 18.3289 861.113 18.3289C857.312 18.3289 855.27 19.8639 855.27 22.5451C855.27 24.5464 856.462 25.6152 858.991 26.4895C860.709 27.092 861.801 27.2666 861.801 28.2772C861.801 29.1714 860.911 29.7541 859.415 29.7541C858.363 29.7541 857.109 29.4823 855.734 28.8797L855.411 31.8916C856.866 32.2833 858.282 32.4586 859.637 32.4586C863.58 32.4586 865.643 30.8229 865.643 27.889C865.643 26.6258 865.198 25.7131 864.207 24.9743C863.298 24.3136 861.983 23.9638 860.385 23.4591C859.516 23.1873 859.091 22.7601 859.091 22.1959C859.091 21.3989 859.941 20.8943 861.497 20.8943C862.488 20.8943 863.539 21.1271 864.672 21.5934L864.956 18.8143Z" fill="#9193A8"/>
<path fill-rule="evenodd" clip-rule="evenodd" d="M877.923 18.8143C876.71 18.4843 875.436 18.3289 874.081 18.3289C870.28 18.3289 868.237 19.8639 868.237 22.5451C868.237 24.5464 869.43 25.6152 871.958 26.4895C873.677 27.092 874.769 27.2666 874.769 28.2772C874.769 29.1714 873.879 29.7541 872.382 29.7541C871.331 29.7541 870.077 29.4823 868.702 28.8797L868.379 31.8916C869.834 32.2833 871.249 32.4586 872.605 32.4586C876.548 32.4586 878.611 30.8229 878.611 27.889C878.611 26.6258 878.166 25.7131 877.175 24.9743C876.265 24.3136 874.95 23.9638 873.354 23.4591C872.484 23.1873 872.06 22.7601 872.06 22.1959C872.06 21.3989 872.908 20.8943 874.466 20.8943C875.457 20.8943 876.508 21.1271 877.64 21.5934L877.923 18.8143Z" fill="#9193A8"/>
<path fill-rule="evenodd" clip-rule="evenodd" d="M888.217 18.3289C883.846 18.3289 881.204 20.952 881.204 25.4019C881.204 29.8519 883.826 32.4586 888.217 32.4586C892.587 32.4586 895.209 29.8512 895.209 25.4019C895.209 20.952 892.587 18.3289 888.217 18.3289ZM888.217 20.9522C890.087 20.9522 891.428 22.6037 891.428 25.3631C891.428 28.1416 890.107 29.7931 888.217 29.7931C886.326 29.7931 884.985 28.1416 884.985 25.3631C884.985 22.5845 886.347 20.9522 888.217 20.9522Z" fill="#9193A8"/>
<path fill-rule="evenodd" clip-rule="evenodd" d="M897.284 18.3289V31.9539H900.688V24.7688C900.688 23.7671 900.566 22.4126 900.301 20.7239C900.566 21.7643 900.892 22.6872 901.301 23.4918L905.562 31.9532H910.251V18.3289H906.846V26.0445C906.846 27.0068 906.969 28.1455 907.193 29.4413C906.744 28.0279 906.377 27.0463 906.092 26.4963L901.994 18.3289H897.284Z" fill="#9193A8"/>
<path fill-rule="evenodd" clip-rule="evenodd" d="M817.924 29.9354H825.704V32.4586H817.924V29.9354Z" fill="#9193A8"/>
<g clip-path="url(#clip2_7565_27778)">
<path fill-rule="evenodd" clip-rule="evenodd" d="M1044.35 17.7777H1048.93V31.6006H1044.35V17.7777ZM1065.4 17.7777V31.6006H1060.58L1057.12 26.6943C1056.28 25.486 1055.56 24.4756 1054.87 23.2881C1054.96 25.3402 1054.99 27.1891 1054.99 29.3506V31.6006H1050.63V17.7777H1055.45L1058.91 22.6839C1059.57 23.637 1060.44 24.9079 1061.16 26.1214C1061.07 24.0693 1061.04 22.1943 1061.04 20.0277V17.7777H1065.4ZM1066.58 24.6735C1066.58 20.262 1069.66 17.46 1074.82 17.46C1078.89 17.46 1082.12 19.4235 1082.73 22.9131H1078.17C1077.74 21.5277 1076.5 20.7777 1074.86 20.7777C1072.49 20.7777 1071.31 22.2516 1071.31 24.6735C1071.31 27.1318 1072.49 28.5745 1074.86 28.5745C1076.58 28.5745 1077.91 27.7048 1078.26 26.1787H1082.78C1082.2 29.8714 1078.98 31.8923 1074.82 31.8923C1069.87 31.8923 1066.58 29.0902 1066.58 24.6735Z" fill="#9193A8"/>
<path fill-rule="evenodd" clip-rule="evenodd" d="M1040.89 14.2832H1002.83V35.0645H1040.89V14.2832ZM1029.64 23.0276V21.2099H1037.43V17.7464H1025.29V31.6005H1037.43V28.137H1029.64V26.262H1036.82V23.0276H1029.64Z" fill="#9193A8"/>
</g>
<path d="M1217.38 19.8401C1216.49 20.6785 1216.49 22.0372 1217.38 22.8755L1220.49 25.815C1220.69 26.0267 1221.54 27.0119 1221.23 28.3441C1221.21 28.4126 1221.23 28.4874 1221.28 28.5407C1221.37 28.6196 1221.5 28.6196 1221.58 28.5407L1223.63 26.6098C1224.77 25.5323 1224.77 23.785 1223.63 22.7069L1220.59 19.8401C1219.71 19.0028 1218.27 19.0028 1217.38 19.8401Z" fill="#9193A8"/>
<path d="M1235.73 37.3588C1236.62 36.5215 1236.62 35.1623 1235.73 34.3244L1232.62 31.3849C1232.42 31.1727 1231.57 30.1881 1231.88 28.8553C1231.9 28.7867 1231.89 28.712 1231.83 28.6587C1231.75 28.5803 1231.61 28.5803 1231.53 28.6587L1229.48 30.5901C1228.34 31.6672 1228.34 33.4144 1229.48 34.4925L1232.52 37.3588C1233.4 38.1972 1234.84 38.1972 1235.73 37.3588Z" fill="#9193A8"/>
<path d="M1217.87 34.3507L1232.69 19.8334C1233.12 19.4131 1233.68 19.2055 1234.25 19.2123C1234.8 19.2196 1235.35 19.426 1235.76 19.8349C1236.18 20.248 1236.4 20.7937 1236.4 21.339C1236.4 21.8868 1236.19 22.4341 1235.76 22.8492L1220.94 37.3665C1220.52 37.7811 1219.96 37.9887 1219.41 37.9876C1218.85 37.9876 1218.29 37.7801 1217.87 37.366C1217.46 36.9607 1217.24 36.4304 1217.23 35.8976C1217.22 35.3379 1217.44 34.7756 1217.87 34.3507Z" fill="#9193A8"/>
<path d="M1178.54 23.1863H1177.07C1176.08 23.1863 1175.29 22.3968 1175.29 21.4234C1175.29 20.4499 1176.08 19.661 1177.07 19.661H1178.54V18.3337C1178.54 16.2742 1179.07 14.739 1180.06 13.7614C1181.04 12.7837 1182.42 12.2949 1184.26 12.2949C1185.02 12.2949 1185.67 12.3506 1186.25 12.4445C1187.1 12.582 1187.71 13.3189 1187.71 14.172C1187.71 15.1976 1186.83 16.0043 1185.79 15.9151C1185.61 15.8995 1185.41 15.8902 1185.21 15.8902C1183.59 15.8902 1182.74 16.7631 1182.74 18.6834V19.6954H1185.91C1186.89 19.6954 1187.68 20.4771 1187.68 21.4412C1187.68 22.4052 1186.89 23.1864 1185.91 23.1864H1182.81V35.8762C1182.81 37.0419 1181.85 37.9878 1180.67 37.9878C1179.5 37.9878 1178.54 37.0419 1178.54 35.8762V23.1863Z" fill="#9193A8"/>
<path d="M1192.38 12.7889C1193.52 12.7889 1194.45 13.7241 1194.45 14.8769V35.8992C1194.45 37.0524 1193.52 37.9876 1192.38 37.9876C1191.23 37.9876 1190.3 37.0524 1190.3 35.8992V14.8769C1190.3 13.7241 1191.23 12.7889 1192.38 12.7889Z" fill="#9193A8"/>
<path fill-rule="evenodd" clip-rule="evenodd" d="M1198.07 28.1465V28.3993C1198.07 34.1029 1202.26 37.9876 1207.69 37.9876C1210.29 37.9876 1212.33 37.2036 1213.94 35.9092C1214.76 35.2479 1214.76 34.0063 1213.96 33.3121C1213.34 32.7646 1212.42 32.7484 1211.74 33.2389C1210.59 34.0789 1209.34 34.5234 1207.76 34.5234C1205.06 34.5234 1202.93 32.9239 1202.4 30.051C1202.38 29.9398 1202.47 29.8342 1202.58 29.8342L1214.99 29.8337C1215.66 29.8337 1216.2 29.302 1216.2 28.6443C1216.2 23.9123 1213.81 19.734 1209.09 18.8701C1203.33 17.8175 1198.07 22.3714 1198.07 28.1465ZM1211.92 26.8292C1211.93 26.9383 1211.84 27.035 1211.73 27.035H1202.54C1202.43 27.035 1202.34 26.9326 1202.36 26.8229C1202.81 24.0675 1204.63 22.1709 1207.19 22.1709C1209.95 22.1709 1211.58 24.1992 1211.92 26.8292Z" fill="#9193A8"/>
<path fill-rule="evenodd" clip-rule="evenodd" d="M1238.68 35.2629C1238.54 35.4897 1238.47 35.7393 1238.47 36.011C1238.47 36.2779 1238.54 36.525 1238.68 36.7528C1238.82 36.9805 1239 37.1608 1239.24 37.2935C1239.48 37.4266 1239.74 37.4935 1240.03 37.4935C1240.31 37.4935 1240.58 37.4251 1240.81 37.2888C1241.05 37.1509 1241.24 36.9685 1241.37 36.7413C1241.51 36.513 1241.57 36.2696 1241.57 36.011C1241.57 35.742 1241.51 35.4949 1241.37 35.2682C1241.23 35.0414 1241.04 34.8613 1240.8 34.7291C1240.56 34.5953 1240.3 34.529 1240.03 34.529C1239.75 34.529 1239.49 34.5948 1239.25 34.7254C1239.01 34.856 1238.82 35.0347 1238.68 35.2629ZM1241.35 36.0109C1241.35 35.7805 1241.29 35.5674 1241.17 35.371C1241.06 35.1745 1240.9 35.0168 1240.69 34.9013C1240.49 34.7848 1240.26 34.7268 1240.02 34.7268C1239.78 34.7268 1239.56 34.7838 1239.35 34.8992C1239.15 35.0141 1238.99 35.1698 1238.87 35.3673C1238.75 35.5632 1238.69 35.7784 1238.69 36.0109C1238.69 36.2412 1238.75 36.4549 1238.87 36.6519C1238.99 36.8488 1239.15 37.0045 1239.35 37.1215C1239.55 37.237 1239.78 37.2954 1240.02 37.2954C1240.26 37.2954 1240.49 37.2369 1240.69 37.1215C1240.9 37.0045 1241.06 36.8488 1241.17 36.6519C1241.29 36.4549 1241.35 36.2412 1241.35 36.0109ZM1240.44 36.3149C1240.47 36.3765 1240.48 36.4675 1240.48 36.5886L1240.48 36.5892C1240.48 36.6488 1240.49 36.7046 1240.49 36.7579C1240.5 36.8112 1240.52 36.8505 1240.53 36.8724H1240.76C1240.72 36.8128 1240.7 36.7031 1240.7 36.5428C1240.7 36.3855 1240.68 36.2727 1240.63 36.2053C1240.59 36.1379 1240.51 36.0883 1240.4 36.0575V36.0501C1240.51 36.0234 1240.59 35.9759 1240.65 35.9059C1240.71 35.8359 1240.73 35.747 1240.73 35.6379C1240.73 35.4874 1240.68 35.373 1240.57 35.2947C1240.46 35.2153 1240.32 35.1761 1240.13 35.1761H1239.36V36.8717H1239.58V36.1545H1240.02C1240.15 36.1545 1240.24 36.1655 1240.3 36.189C1240.37 36.213 1240.41 36.2537 1240.44 36.3149ZM1240.09 35.3739C1240.37 35.3739 1240.51 35.4659 1240.51 35.6492C1240.51 35.7538 1240.47 35.8311 1240.39 35.8828C1240.32 35.9344 1240.21 35.96 1240.07 35.96H1239.58V35.3739H1240.09Z" fill="#9193A8"/>
<g clip-path="url(#clip3_7565_27778)">
<path d="M1338.59 32.5266C1337.47 34.05 1336.03 35.6397 1334.13 36.8319C1332.29 38.0242 1330.19 38.9515 1327.7 38.9515C1325.41 38.9515 1323.5 37.7592 1322.45 36.7657C1320.88 35.2423 1320.03 33.0565 1319.77 31.0032C1319.04 24.6445 1322.91 16.2988 1328.88 12.5895C1330.26 11.7285 1331.77 11.3311 1333.21 11.3311C1336.1 11.3311 1338.26 13.3844 1338.52 15.9013C1338.78 18.1534 1337.93 20.0742 1335.44 21.3327C1334.19 21.9951 1333.54 21.9288 1333.34 21.6639C1333.21 21.4652 1333.28 21.134 1333.54 20.9353C1335.83 19.0144 1335.9 17.4248 1335.64 15.1727C1335.44 13.7156 1334.52 12.7882 1333.47 12.7882C1328.95 12.7882 1322.39 23.0548 1323.31 30.4733C1323.63 33.3877 1325.41 36.7657 1329.08 36.7657C1330.26 36.7657 1331.57 36.4345 1332.69 35.8384C1335.24 34.5137 1336.36 33.5864 1337.87 31.4668C1338.06 31.2019 1338.26 30.8707 1338.46 30.6058C1338.59 30.3408 1338.85 30.2746 1339.05 30.2746C1339.24 30.2746 1339.51 30.4733 1339.51 30.8045C1339.51 31.0032 1339.44 31.4006 1339.18 31.7318C1339.05 31.8642 1338.78 32.2617 1338.59 32.5266Z" fill="#9193A8"/>
<path d="M1345.47 36.3024C1344.36 36.3024 1343.7 35.7063 1343.44 34.779C1342.72 35.7725 1341.67 36.3024 1340.62 36.3024C1338.85 36.3024 1337.21 34.779 1336.95 32.7919C1336.55 29.2814 1339.51 24.7773 1343.97 24.7773C1345.87 24.7773 1347.44 25.5722 1347.64 27.0956C1347.9 29.0165 1346.26 29.4139 1345.67 29.4139C1345.15 29.4139 1344.29 29.2814 1344.23 28.7515C1344.16 28.2216 1345.34 28.5528 1345.21 27.2943C1345.15 26.4995 1344.36 26.2345 1343.57 26.2345C1340.82 26.2345 1339.31 30.0762 1339.64 32.4607C1339.77 33.5205 1340.29 34.5803 1341.28 34.5803C1342.06 34.5803 1343.24 33.4543 1343.64 31.7321C1343.9 30.6061 1345.01 29.8113 1345.8 29.8113C1346.2 29.8113 1346.52 30.01 1346.59 30.4074C1346.59 30.5399 1346.59 30.7386 1346.52 31.0035C1346.46 31.5334 1346.06 33.1231 1346.06 33.5205C1346.06 33.8517 1346.26 34.2491 1346.79 34.2491C1347.38 34.2491 1350.06 32.6594 1351.57 30.5399C1351.7 30.3412 1351.97 30.2087 1352.16 30.2087C1352.36 30.2087 1352.62 30.3412 1352.62 30.6061C1352.69 30.8711 1352.56 31.2022 1352.23 31.6659C1350.52 34.1829 1346.79 36.3024 1345.47 36.3024Z" fill="#9193A8"/>
<path d="M1383.05 34.9771C1383.18 36.1031 1383.71 36.8317 1384.17 37.2291C1384.36 37.3616 1384.43 37.5603 1384.43 37.6927C1384.5 38.0239 1384.23 38.2889 1383.84 38.2889C1383.71 38.2889 1383.58 38.2889 1383.45 38.2226C1381.48 37.4278 1380.69 36.1031 1380.43 34.8446C1379.71 35.7719 1378.66 36.368 1377.67 36.368C1375.9 36.368 1374.26 34.8446 1374 32.8575C1373.61 29.4132 1376.69 24.9092 1381.08 24.9092C1382.92 24.9092 1384.56 25.6378 1384.76 27.1612C1385.02 29.0821 1383.31 29.4795 1382.79 29.4795C1382.2 29.4795 1381.35 29.347 1381.28 28.8171C1381.22 28.3535 1382.46 28.6184 1382.33 27.4261C1382.27 26.6313 1381.41 26.3664 1380.69 26.3664C1378.13 26.3664 1376.43 29.7444 1376.76 32.5263C1376.89 33.6523 1377.41 34.7121 1378.4 34.7121C1379.18 34.7121 1380.36 33.5861 1380.82 31.864C1381.08 30.738 1382.2 29.9431 1382.99 29.9431C1383.38 29.9431 1383.71 30.1418 1383.77 30.6055C1383.77 30.8042 1383.71 31.3341 1383.31 33.1225C1382.99 33.7848 1382.99 34.4472 1383.05 34.9771Z" fill="#9193A8"/>
<path d="M1359.44 34.3147C1360.03 34.3147 1362 33.5861 1363.57 31.4003C1363.77 31.2016 1363.97 31.0691 1364.16 31.0691C1364.43 31.0691 1364.62 31.2016 1364.69 31.4666C1364.69 31.6653 1364.56 32.0627 1364.23 32.5263C1362.46 35.0433 1359.44 36.3018 1358.13 36.3018C1356.75 36.3018 1356.03 35.4407 1355.9 34.1822C1355.84 33.7848 1355.84 33.2549 1355.97 32.725C1356.43 29.8769 1357.48 28.1547 1357.41 27.6249C1357.41 27.4924 1357.28 27.4262 1357.21 27.4262C1356.36 27.4262 1353.28 30.6055 1352.82 32.725L1352.43 34.3809C1352.16 35.5732 1351.05 36.3018 1350.26 36.3018C1349.87 36.3018 1349.61 36.1031 1349.54 35.7057C1349.54 35.5732 1349.54 35.3745 1349.61 35.1095C1349.61 35.1095 1351.11 27.2937 1351.18 26.8963C1351.38 25.969 1351.7 25.0417 1353.54 25.0417C1353.93 25.0417 1354.2 25.2404 1354.26 25.704C1354.26 25.8365 1354.26 26.0352 1354.2 26.3001L1353.67 28.6846C1355.31 26.4988 1357.8 24.9092 1359.38 24.9092C1360.03 24.9092 1360.49 25.2404 1360.62 25.969C1360.69 26.3664 1360.56 27.0287 1360.3 27.7573C1359.77 29.2808 1359.18 31.4666 1358.72 33.3874C1358.59 33.6523 1358.72 34.3147 1359.44 34.3147Z" fill="#9193A8"/>
<path d="M1369.8 25.1747C1369.8 26.2344 1370.33 27.3605 1370.99 28.0891C1371.25 27.3605 1371.38 26.6319 1371.38 25.9033C1371.38 24.5123 1370.85 23.9162 1370.46 23.9162C1370 23.9162 1369.8 24.5785 1369.8 25.1747ZM1372.17 30.871C1371.97 30.871 1371.77 30.871 1371.51 30.8047C1369.8 33.3217 1368.03 35.0438 1366.66 35.7724C1366.07 36.1036 1365.54 36.2361 1365.15 36.2361C1364.82 36.2361 1364.49 36.1699 1364.36 35.9049C1363.77 34.8451 1363.51 32.7918 1363.51 30.606C1363.51 29.0164 1363.64 27.6916 1363.9 26.7643C1364.23 25.7708 1365.48 24.8435 1366.26 24.8435C1366.66 24.8435 1366.98 25.0422 1366.98 25.5058C1366.98 25.6383 1366.92 25.837 1366.85 26.0357C1366.26 27.6916 1366 29.2813 1366 30.871C1366 31.732 1366.2 33.1892 1366.39 33.9178C1366.46 34.0503 1366.46 34.249 1366.59 34.249C1366.85 34.249 1368.62 32.4606 1369.94 30.3411C1368.82 29.6125 1368.17 28.2878 1368.17 26.6319C1368.17 23.8499 1369.8 22.459 1371.38 22.459C1372.62 22.459 1373.74 23.3863 1373.74 25.2409C1373.74 26.3669 1373.28 27.6916 1372.62 28.9501C1372.62 28.9501 1372.89 29.0164 1373.02 29.0164C1374 29.0164 1374.79 28.5527 1375.18 28.0891C1375.51 27.7579 1375.77 27.4929 1376.03 27.4929C1376.23 27.4929 1376.3 27.6254 1376.3 27.8241C1376.3 27.9566 1376.23 28.1553 1376.17 28.354C1375.25 29.8774 1373.54 30.871 1372.17 30.871Z" fill="#9193A8"/>
</g>
<mask id="mask0_7565_27778" style="mask-type:luminance" maskUnits="userSpaceOnUse" x="1463" y="18" width="100" height="15">
<path d="M1562.18 18.7793H1463.19V32.609H1562.18V18.7793Z" fill="white"/>
</mask>
<g mask="url(#mask0_7565_27778)">
<path fill-rule="evenodd" clip-rule="evenodd" d="M1517.47 25.2011C1517.47 25.2011 1516.51 24.6331 1515.91 24.4131C1515.91 24.4131 1514.07 23.5978 1513.7 23.2101C1513.7 23.2101 1512.99 22.5643 1513.41 21.8135C1513.41 21.8135 1513.58 21.3226 1514.34 21.3226C1514.34 21.3226 1515.33 21.3745 1515.33 22.1498V23.2433H1518.87L1518.87 21.6331C1518.87 21.6331 1519.14 18.9957 1514.69 18.8799C1514.69 18.8799 1511.2 18.6608 1510.2 20.4573C1510.2 20.4573 1509.8 20.8582 1509.8 22.2539V23.2624C1509.8 23.2624 1509.76 24.4258 1510.38 25.1757C1510.38 25.1757 1510.74 25.6675 1511.6 26.2096C1511.6 26.2096 1513.37 27.1145 1514.42 27.6326C1514.42 27.6326 1515.49 28.2139 1515.35 29.1388C1515.35 29.1388 1515.26 30.0881 1514.23 30.0496C1514.23 30.0496 1513.29 30.0095 1513.29 29.0783V27.9853H1509.51V29.5728C1509.51 29.5728 1509.41 32.6082 1514.26 32.6082C1514.26 32.6082 1518.89 32.6977 1519.11 29.4928V28.2002C1519.11 28.2002 1519.27 26.2355 1517.47 25.2011ZM1499.34 19.2571L1498.15 26.3497H1497.87L1496.74 19.3212H1490.82L1490.53 32.1646H1494.03L1494.07 22.488H1494.35L1496.2 32.1633H1499.89L1501.72 22.4916H1501.97L1502.05 32.1651H1505.57L1505.2 19.258L1499.34 19.2571ZM1478.48 19.3107L1476.15 32.1492H1479.92L1481.3 22.1953H1481.61L1482.99 32.1496H1486.76L1484.43 19.3107H1478.48ZM1557.62 25.0244V26.9182H1558.59V28.951C1558.59 29.945 1557.7 29.9632 1557.7 29.9632C1556.61 29.9632 1556.66 29.0188 1556.66 29.0188V21.9871C1556.66 21.2627 1557.62 21.2236 1557.62 21.2236C1558.54 21.2236 1558.54 22.0876 1558.54 22.0876V23.157H1562.1C1562.21 21.0696 1561.77 20.5646 1561.77 20.5646C1560.89 18.6772 1557.56 18.7803 1557.56 18.7803C1552.44 18.7803 1553.01 22.5293 1553.01 22.5293V29.3287C1553.12 32.8445 1558.17 32.4874 1558.25 32.4846C1560.5 32.2478 1561.17 31.567 1561.17 31.567C1561.8 31.1249 1561.96 30.5126 1561.96 30.5126C1562.14 30.1559 1562.18 29.0197 1562.18 29.0197V25.0249L1557.62 25.0244ZM1545.85 27.1141H1545.7L1542.09 19.2607H1537.78V32.1656H1541.29L1541.08 24.3136H1541.24L1544.97 32.1656H1549.15V19.2598H1545.6L1545.85 27.1141ZM1529.21 28.9502C1529.21 28.9502 1529.26 30.0095 1528.24 30.0095C1528.24 30.0095 1527.15 30.065 1527.15 28.977L1527.14 19.2689H1523.29V28.8997C1523.29 28.8997 1522.9 32.5446 1528.29 32.5446C1528.29 32.5446 1532.98 32.5978 1532.98 29.0669V19.2689H1529.22L1529.21 28.9502ZM1471.14 25.2011C1471.14 25.2011 1470.18 24.6331 1469.59 24.4136C1469.59 24.4136 1467.74 23.5992 1467.38 23.2105C1467.38 23.2105 1466.66 22.5634 1467.08 21.8149C1467.08 21.8149 1467.26 21.324 1468.02 21.324C1468.02 21.324 1469 21.3754 1469 22.1502V23.2437H1472.55L1472.54 21.6326C1472.54 21.6326 1472.81 18.9953 1468.37 18.8799C1468.37 18.8799 1468.03 18.8594 1467.54 18.8826C1467.54 18.8826 1464.85 19.0203 1463.89 20.4292C1463.88 20.4396 1463.87 20.4474 1463.87 20.4569C1463.87 20.4569 1463.48 20.8573 1463.48 22.2534V23.2619C1463.48 23.2619 1463.44 24.4254 1464.06 25.1752C1464.06 25.1752 1464.41 25.667 1465.28 26.2092C1465.28 26.2092 1467.04 27.1141 1468.1 27.6322C1468.1 27.6322 1469.16 28.2121 1469.02 29.1383C1469.02 29.1383 1468.94 30.0877 1467.91 30.049C1467.91 30.049 1466.96 30.0091 1466.96 29.0778V27.9844H1463.19V29.5728C1463.19 29.5728 1463.08 32.6082 1467.93 32.6082C1467.93 32.6082 1472.57 32.6977 1472.78 29.4928V28.2012C1472.78 28.2012 1472.95 26.2355 1471.14 25.2011Z" fill="#9193A8"/>
</g>
<path fill-rule="evenodd" clip-rule="evenodd" d="M1728.42 18.0546V20.3085H1725.11V31.5245H1722.86C1722.86 31.5245 1722.86 23.2729 1722.86 20.3085H1721.22V18.0546H1722.86V18.0852C1722.86 15.6546 1723.82 13.8189 1725.25 13.0596C1726.72 12.2795 1728.42 12.4344 1728.42 12.4344V14.7142C1728.17 14.7142 1727.5 14.6023 1726.62 15.029C1725.68 15.483 1725.17 16.49 1725.11 17.9354V18.0546H1728.42Z" fill="#9193A8"/>
<path fill-rule="evenodd" clip-rule="evenodd" d="M1687.78 20.3219V18.0676H1684.48V12.6816H1682.22C1682.22 12.6816 1682.22 15.1024 1682.22 18.0676H1680.59V20.3219H1682.22V26.114C1682.22 28.5447 1683.18 30.3435 1684.61 31.1021C1686.09 31.8829 1687.78 31.6873 1687.78 31.6873V29.4166C1687.53 29.4166 1686.87 29.5281 1685.99 29.1021C1685.05 28.6478 1684.53 27.5605 1684.48 26.1148V20.3219H1687.78Z" fill="#9193A8"/>
<path fill-rule="evenodd" clip-rule="evenodd" d="M1696.72 20.3219V18.0676H1693.42V12.6816H1691.16C1691.16 12.6816 1691.16 15.1024 1691.16 18.0676H1689.53V20.3219H1691.16V26.114C1691.16 28.5447 1692.12 30.3435 1693.55 31.1021C1695.03 31.8829 1696.72 31.6873 1696.72 31.6873V29.4166C1696.47 29.4166 1695.81 29.5281 1694.93 29.1021C1693.99 28.6478 1693.47 27.5605 1693.42 26.1148V20.3219H1696.72Z" fill="#9193A8"/>
<path fill-rule="evenodd" clip-rule="evenodd" d="M1676.16 25.8996C1676.16 28.0712 1675.11 29.3876 1673.34 29.4204C1671.57 29.3876 1670.52 28.0712 1670.52 25.8996V18.0674H1668.27V25.9987C1668.27 29.5439 1670.16 31.6936 1673.34 31.6936C1676.52 31.6936 1678.41 29.5439 1678.41 25.9987V18.0674H1676.16V25.8996Z" fill="#9193A8"/>
<path fill-rule="evenodd" clip-rule="evenodd" d="M1731.42 31.5244H1733.66V12.6816H1731.42V31.5244Z" fill="#9193A8"/>
<path fill-rule="evenodd" clip-rule="evenodd" d="M1646.64 31.7131C1643.32 31.7131 1640.54 29.9168 1639.95 28.365L1641.65 26.8605C1642.44 28.0203 1643.97 29.4945 1646.62 29.4945C1649.21 29.4945 1650.75 28.4357 1650.75 26.4641C1650.75 24.3363 1648.83 23.6385 1646.07 22.9707C1643.23 22.286 1640.43 21.3686 1640.43 17.6485C1640.43 14.6732 1643.08 12.4287 1646.59 12.4287C1649.62 12.4287 1651.84 13.8552 1652.53 15.079L1650.85 16.5456C1649.89 15.3334 1648.28 14.6538 1646.62 14.6538C1644.26 14.6538 1642.67 15.7608 1642.67 17.5917C1642.67 19.7745 1644.36 20.2256 1646.99 20.8618C1650.1 21.6029 1653.02 22.7553 1653.02 26.3814C1653.02 29.6202 1650.52 31.7131 1646.64 31.7131Z" fill="#9193A8"/>
<path fill-rule="evenodd" clip-rule="evenodd" d="M1718.44 17.9443C1716.79 17.9443 1715.6 18.4861 1714.82 19.506V18.0679H1712.55V31.5371H1714.82V23.6057C1714.82 21.4338 1716.68 20.2551 1718.44 20.2234C1718.69 20.2278 1718.93 20.258 1719.16 20.3087V17.9859C1718.93 17.9615 1718.69 17.9443 1718.44 17.9443Z" fill="#9193A8"/>
<path fill-rule="evenodd" clip-rule="evenodd" d="M1707.8 23.9023C1707.57 21.8929 1706.66 19.9323 1704.07 19.9323C1701.99 19.9323 1700.59 21.4779 1700.27 23.9023H1707.8ZM1704.37 31.6941C1700.62 31.6941 1698.05 28.7326 1698.05 24.8059C1698.05 20.8785 1700.52 17.917 1704.12 17.917C1707.8 17.917 1710.02 20.7255 1710.02 24.9054C1710.02 25.0835 1710.02 25.2879 1709.99 25.5915L1709.98 25.708H1700.27C1700.57 28.1401 1702.07 29.6457 1704.42 29.6457C1705.97 29.6457 1706.99 29.196 1708.15 27.9747L1708.24 27.8858L1709.62 29.129L1709.54 29.2237C1708.01 30.9329 1706.59 31.6941 1704.37 31.6941Z" fill="#9193A8"/>
<path fill-rule="evenodd" clip-rule="evenodd" d="M1660.84 17.9167C1659.29 17.9167 1658.24 18.5456 1657.72 19.1169V12.6816H1655.44V31.5368H1657.72V23.6503C1657.72 21.478 1659.07 20.1615 1660.84 20.1298C1662.61 20.1615 1663.55 21.7348 1663.55 23.9064V31.5368H1665.8V23.9064C1665.8 19.6507 1663.58 17.9167 1660.84 17.9167Z" fill="#9193A8"/>
<path fill-rule="evenodd" clip-rule="evenodd" d="M1744.51 18.0674V25.9608C1744.51 28.1328 1743.18 29.4492 1741.45 29.4812C1739.72 29.4492 1738.8 27.8759 1738.8 25.7047V18.0674H1736.59V25.7047C1736.59 29.96 1738.77 31.694 1741.45 31.694C1742.97 31.694 1744 31.0655 1744.51 30.4938V32.4161C1744.46 33.8616 1743.97 34.8005 1743.05 35.2552C1742.19 35.6808 1741.54 35.5689 1741.29 35.5689V37.8396C1741.29 37.8396 1742.95 38.0353 1744.4 37.2548C1745.8 36.4962 1746.74 34.697 1746.74 32.2664V18.0674H1744.51Z" fill="#9193A8"/>
<path fill-rule="evenodd" clip-rule="evenodd" d="M1749.2 31.1625C1748.63 31.1625 1748.19 30.7158 1748.19 30.1383C1748.19 29.564 1748.64 29.1144 1749.21 29.1144C1749.78 29.1144 1750.22 29.5611 1750.22 30.1383C1750.22 30.7129 1749.77 31.1625 1749.2 31.1625ZM1749.21 28.9053C1748.53 28.9053 1747.98 29.458 1747.98 30.1448C1747.98 30.8214 1748.53 31.3716 1749.2 31.3716C1749.88 31.3716 1750.44 30.8182 1750.44 30.1321C1750.44 29.4551 1749.89 28.9053 1749.21 28.9053ZM1749.27 30.0894H1748.96V29.6959H1749.27C1749.42 29.6959 1749.52 29.7641 1749.52 29.8894V29.896C1749.52 30.014 1749.42 30.0894 1749.27 30.0894ZM1749.76 29.8821V29.8759C1749.76 29.7677 1749.72 29.6795 1749.66 29.6169C1749.57 29.5316 1749.44 29.4824 1749.28 29.4824H1748.73V30.7256H1748.96V30.2957H1749.22L1749.52 30.7256H1749.8L1749.47 30.2567C1749.64 30.2075 1749.76 30.0829 1749.76 29.8821Z" fill="#9193A8"/>
<g clip-path="url(#clip4_7565_27778)">
<path fill-rule="evenodd" clip-rule="evenodd" d="M1857.75 -0.107422C1854.78 1.05935 1851.94 2.93734 1849.78 5.7541L1849.76 -0.107422H1857.75Z" fill="#9193A8"/>
<path fill-rule="evenodd" clip-rule="evenodd" d="M1882.94 1.88962C1880.9 1.44033 1879.11 2.27635 1877.49 3.15039C1874.04 0.391735 1868.55 1.62757 1864.81 2.91328C1862.73 3.71209 1859.79 5.23491 1859.85 7.78139C1859.85 8.64235 1860.49 9.40396 1861.27 9.81604C1861.86 10.1529 1862.53 10.2903 1863.12 10.6271C1863.18 10.677 1863.21 10.7645 1863.15 10.8393C1862.78 11.1639 1862.28 11.2264 1861.8 11.3262C1859.67 11.6884 1857.67 12.3372 1855.76 13.1609C1854.85 13.5603 1853.98 14.0096 1853.14 14.5464C1851.95 13.86 1850.8 13.0362 1849.76 11.9999V6.53289C1851.64 3.86172 1854.54 1.86468 1857.47 0.741268L1859.65 -0.107422H1882.94V1.88962Z" fill="#9193A8"/>
<path fill-rule="evenodd" clip-rule="evenodd" d="M1876.79 3.60725C1871.53 6.61445 1868.44 11.8418 1866.04 16.6561C1862.26 17.0818 1858.12 16.9786 1854.68 15.9332C1856.9 13.5195 1859.9 12.7324 1862.83 11.8807C1863.14 11.7517 1863.62 11.5577 1863.62 11.1447C1863.6 10.6932 1863.04 10.4865 1862.76 10.1382C1862.03 9.42847 1861.91 8.26643 1862.22 7.32419C1863.18 4.53638 1866.31 3.27161 1868.95 2.61344C1871.49 1.99417 1874.72 2.01995 1876.79 3.60725Z" fill="#9193A8"/>
<path fill-rule="evenodd" clip-rule="evenodd" d="M1882.94 2.93427V8.29C1878.98 12.5266 1874.11 14.969 1868.81 16.3048C1871.08 12.2337 1873.6 8.22666 1877.5 4.80423C1878.13 5.54213 1878.34 6.64919 1878 7.59043C1877.74 8.42999 1877.11 9.38414 1876.16 9.65122C1875.81 9.72789 1875.36 9.63872 1875.17 10.0075C1875.12 10.1345 1875.12 10.2745 1875.17 10.3891C1875.29 10.6054 1875.52 10.6562 1875.77 10.6562C1877.3 10.5166 1878.27 8.95165 1878.67 7.74292C1879.09 6.53461 1878.69 5.24964 1878.09 4.24466C1879.48 3.30301 1881.08 2.52719 1882.94 2.93427Z" fill="#9193A8"/>
<path fill-rule="evenodd" clip-rule="evenodd" d="M1882.94 25.2676C1879.95 27.3002 1876.41 28.5068 1872.5 27.8465C1871.32 27.6434 1870.16 27.3638 1869.03 27.021C1871.08 25.2293 1872.99 23.2346 1873 20.5418C1872.9 19.7029 1872.8 18.7755 1872.02 18.2803C1871.87 18.2421 1871.68 18.2292 1871.55 18.2928C1871.4 18.3819 1871.31 18.5342 1871.3 18.6993C1871.33 19.0805 1871.77 19.3093 1871.96 19.6397C1872.47 20.5035 1872.19 21.723 1871.84 22.5743C1871.15 24.175 1869.7 25.5597 1868.29 26.7921C1866.54 26.0553 1864.85 25.1403 1863.28 24.0735C1865.73 22.0917 1867.44 19.6143 1868.86 17.124C1874.12 16.0568 1878.88 13.7958 1882.94 9.85717V25.2676Z" fill="#9193A8"/>
<path fill-rule="evenodd" clip-rule="evenodd" d="M1852.83 15.3574C1851.7 16.1409 1850.6 17.0961 1849.78 18.0633L1849.76 13.3741C1850.75 14.1087 1851.75 14.8064 1852.83 15.3574Z" fill="#9193A8"/>
<path fill-rule="evenodd" clip-rule="evenodd" d="M1866.56 16.6171C1865.52 18.8112 1864.43 20.9796 1862.6 22.8656C1860.92 21.865 1859.18 20.6459 1857 21.0821C1856.38 21.2363 1855.71 21.6599 1855.46 22.2756C1855.21 22.8017 1855.3 23.5329 1855.69 23.9691C1856.51 24.8163 1857.64 25.0214 1858.82 25.047C1860.31 25.047 1861.58 24.5339 1862.75 23.7897C1864.32 24.8163 1865.92 25.8299 1867.58 26.7023C1864.82 28.0878 1861.63 28.9733 1858.24 28.4728C1855.73 28.1135 1852.93 26.2661 1852.39 23.751C1851.72 20.6716 1853.14 17.99 1855.07 15.7187C1858.52 16.8865 1862.7 17.0277 1866.56 16.6171Z" fill="#9193A8"/>
<path fill-rule="evenodd" clip-rule="evenodd" d="M1861.44 23.3585C1859.96 24.4957 1857.54 24.9671 1855.84 23.9548C1855.4 23.6355 1855.2 23.1228 1855.33 22.5819C1855.54 21.9165 1856.25 21.6531 1856.85 21.5836C1858.66 21.5142 1860.01 22.5129 1861.44 23.3585Z" fill="#9193A8"/>
<path fill-rule="evenodd" clip-rule="evenodd" d="M1860.61 29.6244C1863.15 29.386 1865.44 28.5327 1867.58 27.3904C1870.62 28.9092 1874.44 30.0511 1878.02 28.8964C1879.82 28.3444 1881.44 27.3904 1882.94 26.1227V31.5448H1849.76V25.6833C1852.68 28.5951 1856.31 30.0132 1860.61 29.6244Z" fill="#9193A8"/>
<path fill-rule="evenodd" clip-rule="evenodd" d="M1846.69 39.7081H1850.99V39.2076H1846.69V39.7081Z" fill="#9193A8"/>
<path fill-rule="evenodd" clip-rule="evenodd" d="M1838.95 41.9979L1839.06 42.2455L1838.62 42.4437C1838.43 41.9732 1837.94 41.4784 1837.39 41.4039C1836.8 41.305 1836.22 41.4663 1835.85 41.9112C1835.6 42.233 1835.57 42.765 1835.8 43.0993C1836.85 44.4601 1839.59 44.6704 1839.3 46.8112C1839.2 47.5163 1838.5 48.172 1837.78 48.3823C1836.96 48.6667 1835.88 48.5804 1835.19 48.0731C1834.8 47.776 1834.55 47.4174 1834.4 47.0337C1834.58 46.9842 1834.75 46.9348 1834.92 46.8975C1835.11 47.3554 1835.57 47.8749 1836.12 47.9864C1836.89 48.172 1837.7 48.0111 1838.19 47.4296C1838.46 47.0831 1838.46 46.551 1838.26 46.1677C1837.41 44.8191 1835.49 44.8065 1834.78 43.3465C1834.56 42.6787 1834.76 41.9858 1835.28 41.5157C1835.95 40.9464 1836.97 40.7733 1837.83 41.0578C1838.29 41.2061 1838.72 41.5895 1838.95 41.9979Z" fill="#9193A8"/>
<path fill-rule="evenodd" clip-rule="evenodd" d="M1831.95 41.4148H1829.2L1829.19 44.1961L1831.6 44.2093V44.6881H1829.2V48.0517H1831.95V48.5432H1828.26V40.9232H1831.95V41.4148Z" fill="#9193A8"/>
<path fill-rule="evenodd" clip-rule="evenodd" d="M1844.85 41.4148H1842.85V48.5432H1841.92V41.4275L1839.93 41.4148V40.9232H1844.85V41.4148Z" fill="#9193A8"/>
<path fill-rule="evenodd" clip-rule="evenodd" d="M1850.99 41.4148H1848.27L1848.26 44.1961L1850.63 44.2093V44.6881H1848.27V48.0517H1850.99V48.5432H1847.3V40.9232H1850.99V41.4148Z" fill="#9193A8"/>
<path fill-rule="evenodd" clip-rule="evenodd" d="M1857.75 41.4148H1855.02V44.1961L1857.38 44.2093V44.6881H1855.02V48.0517H1857.72V48.5432H1854.06V40.9232H1857.75V41.4148Z" fill="#9193A8"/>
<path fill-rule="evenodd" clip-rule="evenodd" d="M1864.85 48.039L1867.58 48.0517V48.5432H1863.89V40.9232H1864.85V48.039Z" fill="#9193A8"/>
<path fill-rule="evenodd" clip-rule="evenodd" d="M1877.88 46.7645C1877.98 47.4199 1878.3 48.0497 1878.97 48.4154C1879.63 48.7679 1880.68 48.7304 1881.29 48.3271C1882.31 47.6845 1882.41 46.6382 1882.34 45.5543V41.5094H1882.94L1882.92 46.7896C1882.84 47.7348 1882.04 48.68 1881.03 48.957C1879.87 49.2975 1878.44 49.1588 1877.6 48.3143C1877.03 47.76 1876.81 47.0794 1876.79 46.3104V41.5094H1877.87L1877.88 46.7645Z" fill="#9193A8"/>
<path fill-rule="evenodd" clip-rule="evenodd" d="M1897.68 41.4148H1894.96V44.1961L1897.32 44.2093V44.6881H1894.96V48.0517H1897.68V48.5432H1894V40.9232H1897.68V41.4148Z" fill="#9193A8"/>
<path fill-rule="evenodd" clip-rule="evenodd" d="M1890.06 47.3114C1889.28 48.099 1888.16 48.0732 1887.03 48.047V41.425C1888.51 41.3218 1890.03 41.567 1890.67 42.9483C1891.25 44.3168 1891.16 46.2012 1890.06 47.3114ZM1889.89 41.2313C1888.76 40.7282 1887.31 41.0119 1886.01 40.9345V48.5374C1887.39 48.4732 1888.91 48.7446 1890.05 48.1248C1891.37 47.4792 1892.15 46.1369 1892.15 44.7299C1892.2 43.2324 1891.32 41.7733 1889.89 41.2313Z" fill="#9193A8"/>
<path fill-rule="evenodd" clip-rule="evenodd" d="M1901.17 44.4511V41.4303C1902.15 41.4303 1903.23 41.3661 1903.7 42.2569C1903.92 42.6695 1903.91 43.2508 1903.68 43.6381C1903.16 44.49 1902.15 44.49 1901.17 44.4511ZM1903.19 44.7484L1903.17 44.6837C1903.7 44.5547 1904.23 44.2837 1904.55 43.7929C1904.91 43.212 1904.88 42.3212 1904.43 41.7792C1903.42 40.6237 1901.67 40.9915 1900.14 40.94V48.5432H1901.17V44.8773H1902.17L1902.21 44.9031L1904.01 48.5432L1905.06 48.5301L1903.19 44.7484Z" fill="#9193A8"/>
<path fill-rule="evenodd" clip-rule="evenodd" d="M1870.61 44.6815L1871.66 42.427L1872.66 44.6815H1870.61ZM1872.15 40.9232H1871.74L1868.19 48.5432L1868.87 48.5301L1870.4 45.2001H1872.87L1872.91 45.2256C1873.39 46.3273 1873.84 47.4419 1874.33 48.5301H1875.57L1872.15 40.9232Z" fill="#9193A8"/>
</g>
<g clip-path="url(#clip5_7565_27778)">
<path fill-rule="evenodd" clip-rule="evenodd" d="M2008.58 22.1201C2007.47 22.1176 2006.4 22.5027 2005.55 23.2082V22.2306H2002.8V32.9666H2005.66V26.1033C2005.97 25.7028 2006.37 25.3757 2006.82 25.1458C2007.27 24.916 2007.76 24.789 2008.27 24.7742C2008.66 24.7541 2009.05 24.8127 2009.42 24.9466V22.1938C2009.14 22.1451 2008.86 22.1204 2008.58 22.1201Z" fill="#9193A8"/>
<path fill-rule="evenodd" clip-rule="evenodd" d="M1983.58 29.6908C1984.4 30.3829 1985.44 30.7596 1986.51 30.7529C1987.28 30.7529 1987.88 30.3762 1987.88 29.8456C1987.88 28.2294 1982.7 28.8052 1982.7 25.3518C1982.7 23.2937 1984.68 22.0098 1986.8 22.0098C1988.08 22.0133 1989.34 22.3914 1990.41 23.0978L1989.07 25.1744C1988.48 24.7253 1987.76 24.4704 1987.02 24.4445C1986.23 24.4445 1985.57 24.7542 1985.57 25.3075C1985.57 26.7019 1990.75 26.1486 1990.75 29.8674C1990.75 31.9263 1988.74 33.1877 1986.49 33.1877C1984.94 33.1726 1983.44 32.6707 1982.19 31.7531L1983.58 29.6908Z" fill="#9193A8"/>
<path fill-rule="evenodd" clip-rule="evenodd" d="M2001.57 27.4987C2001.57 24.5107 1999.48 22.0098 1996.52 22.0098C1993.35 22.0098 1991.32 24.6212 1991.32 27.61C1991.29 28.3531 1991.41 29.0946 1991.68 29.7873C1991.95 30.48 1992.36 31.1087 1992.89 31.6334C1993.42 32.1581 1994.05 32.5673 1994.74 32.8349C1995.44 33.1025 1996.18 33.2226 1996.92 33.1877C1997.75 33.1985 1998.57 33.0324 1999.33 32.7003C2000.08 32.3683 2000.76 31.8781 2001.31 31.2626L1999.68 29.6246C1999.34 30.0018 1998.92 30.306 1998.46 30.519C1998 30.732 1997.5 30.8494 1996.99 30.8642C1996.27 30.8875 1995.58 30.6375 1995.04 30.1651C1994.5 29.6927 1994.17 29.0334 1994.1 28.3215H2001.51C2001.55 28.0496 2001.58 27.7743 2001.57 27.4987ZM1994.23 26.2156C1994.33 25.6838 1994.62 25.2046 1995.04 24.861C1995.46 24.5174 1995.98 24.331 1996.52 24.3341C1997.05 24.3349 1997.55 24.5267 1997.94 24.8733C1998.33 25.22 1998.58 25.6974 1998.64 26.2156H1994.23Z" fill="#9193A8"/>
<path fill-rule="evenodd" clip-rule="evenodd" d="M2016.25 28.7833L2019.18 22.2314H2022.16L2017.24 32.9674H2015.26L2010.34 22.2314H2013.32L2016.25 28.7833Z" fill="#9193A8"/>
<path fill-rule="evenodd" clip-rule="evenodd" d="M2024.57 17.1898C2024.93 17.1964 2025.28 17.3099 2025.58 17.5162C2025.88 17.7225 2026.11 18.0124 2026.24 18.3494C2026.38 18.6863 2026.41 19.0555 2026.34 19.4104C2026.26 19.7654 2026.08 20.0904 2025.82 20.3445C2025.56 20.5987 2025.24 20.7708 2024.88 20.8392C2024.52 20.9075 2024.16 20.8692 2023.82 20.7289C2023.49 20.5886 2023.2 20.3526 2023 20.0506C2022.8 19.7485 2022.69 19.3939 2022.69 19.0311C2022.69 18.7865 2022.74 18.5443 2022.84 18.3186C2022.93 18.093 2023.07 17.8885 2023.24 17.7171C2023.42 17.5457 2023.62 17.4107 2023.85 17.3202C2024.08 17.2297 2024.32 17.1853 2024.57 17.1898Z" fill="#9193A8"/>
<path d="M2026 22.2314H2023.13V32.9674H2026V22.2314Z" fill="#9193A8"/>
<path fill-rule="evenodd" clip-rule="evenodd" d="M2037.85 30.7751C2037.31 31.5512 2036.58 32.1787 2035.73 32.6002C2034.88 33.0218 2033.94 33.2239 2033 33.1881C2032.25 33.207 2031.51 33.0761 2030.81 32.8031C2030.12 32.53 2029.48 32.1203 2028.95 31.5983C2028.41 31.0763 2027.99 30.4524 2027.7 29.7636C2027.41 29.0748 2027.26 28.335 2027.26 27.588C2027.27 26.8409 2027.42 26.1017 2027.71 25.414C2028 24.7264 2028.43 24.1042 2028.96 23.5842C2029.5 23.0643 2030.14 22.6571 2030.83 22.3867C2031.53 22.1164 2032.27 21.9884 2033.02 22.0102C2033.88 22.0038 2034.74 22.1937 2035.52 22.5656C2036.29 22.9375 2036.98 23.4817 2037.52 24.1571L2035.49 25.9499C2035.21 25.558 2034.83 25.2377 2034.41 25.0148C2033.98 24.7918 2033.5 24.6723 2033.02 24.6659C2032.63 24.6644 2032.25 24.7399 2031.9 24.8881C2031.54 25.0363 2031.22 25.2541 2030.95 25.5286C2030.69 25.8032 2030.47 26.1289 2030.33 26.4865C2030.19 26.8441 2030.12 27.2263 2030.13 27.6105C2030.12 28.0004 2030.19 28.3888 2030.33 28.7512C2030.48 29.1137 2030.7 29.4424 2030.97 29.7166C2031.25 29.9909 2031.58 30.2049 2031.95 30.3451C2032.31 30.4853 2032.7 30.5488 2033.09 30.5315C2033.6 30.5214 2034.1 30.3871 2034.54 30.1403C2034.99 29.8935 2035.37 29.5417 2035.65 29.1154L2037.85 30.7751Z" fill="#9193A8"/>
<path fill-rule="evenodd" clip-rule="evenodd" d="M2048.27 31.2616C2047.71 31.8771 2047.04 32.3674 2046.28 32.6994C2045.52 33.0315 2044.7 33.1976 2043.88 33.1867C2043.13 33.2213 2042.39 33.1009 2041.7 32.8331C2041 32.5654 2040.37 32.1561 2039.85 31.6315C2039.32 31.1068 2038.91 30.4782 2038.64 29.7857C2038.37 29.0932 2038.24 28.3519 2038.28 27.609C2038.28 24.6202 2040.3 22.0088 2043.48 22.0088C2046.43 22.0088 2048.53 24.5097 2048.53 27.4977C2048.53 27.7723 2048.51 28.0464 2048.46 28.3171H2041.05C2041.12 29.0293 2041.46 29.6889 2041.99 30.1618C2042.53 30.6346 2043.23 30.8852 2043.94 30.8624C2044.45 30.8475 2044.95 30.73 2045.41 30.517C2045.88 30.304 2046.29 29.9999 2046.63 29.6228L2048.27 31.2616ZM2045.6 26.2155C2045.53 25.6974 2045.29 25.2199 2044.9 24.8732C2044.51 24.5266 2044 24.3347 2043.48 24.3339C2042.94 24.3307 2042.41 24.5171 2041.99 24.8607C2041.57 25.2043 2041.29 25.6836 2041.19 26.2155H2045.6Z" fill="#9193A8"/>
<path fill-rule="evenodd" clip-rule="evenodd" d="M2049.67 32.9667V22.2308H2052.43V23.0937C2053.27 22.3898 2054.34 22.0062 2055.45 22.0098C2056.15 22.0078 2056.85 22.1615 2057.49 22.4599C2058.13 22.7584 2058.7 23.1942 2059.15 23.7365C2059.98 24.8104 2060.37 26.1539 2060.25 27.5029V32.9667H2057.39V27.2753C2057.43 26.9134 2057.39 26.5471 2057.28 26.2001C2057.17 25.8531 2056.99 25.533 2056.75 25.2606C2056.31 24.8567 2055.73 24.6418 2055.14 24.663C2054.63 24.6779 2054.14 24.8048 2053.69 25.0345C2053.24 25.2642 2052.84 25.591 2052.54 25.9913V32.9667H2049.67Z" fill="#9193A8"/>
<path fill-rule="evenodd" clip-rule="evenodd" d="M2067.64 22.0105C2066.38 22.0078 2065.15 22.3831 2064.11 23.0876C2063.06 23.7922 2062.26 24.7934 2061.79 25.9617C2061.33 27.1299 2061.22 28.4112 2061.49 29.6395C2061.76 30.8677 2062.4 31.9863 2063.31 32.8502C2063.53 33.0544 2063.81 33.1751 2064.1 33.1904C2064.4 33.2058 2064.69 33.1148 2064.92 32.9339C2065.7 32.3584 2066.64 32.0475 2067.6 32.0475C2068.56 32.0475 2069.5 32.3584 2070.28 32.9339C2070.51 33.1152 2070.81 33.2054 2071.1 33.188C2071.4 33.1707 2071.68 33.0469 2071.9 32.8393C2072.8 31.9787 2073.43 30.8667 2073.7 29.646C2073.97 28.4254 2073.87 27.1516 2073.42 25.988C2072.96 24.8244 2072.16 23.824 2071.13 23.1151C2070.1 22.4061 2068.89 22.0209 2067.64 22.0088M2067.6 31.419C2067.19 31.4302 2066.77 31.357 2066.39 31.2039C2066.01 31.0509 2065.66 30.8212 2065.36 30.5288C2065.07 30.2364 2064.84 29.8875 2064.69 29.5034C2064.54 29.1192 2064.46 28.7079 2064.47 28.2945C2064.47 27.4657 2064.8 26.6707 2065.39 26.0846C2065.98 25.4985 2066.77 25.1692 2067.6 25.1692C2068.43 25.1692 2069.22 25.4985 2069.81 26.0846C2070.4 26.6707 2070.72 27.4657 2070.72 28.2945C2070.74 28.7079 2070.66 29.1192 2070.51 29.5034C2070.36 29.8875 2070.13 30.2364 2069.83 30.5288C2069.54 30.8212 2069.19 31.0509 2068.81 31.2039C2068.42 31.357 2068.01 31.4302 2067.6 31.419Z" fill="#9193A8"/>
<path fill-rule="evenodd" clip-rule="evenodd" d="M2079.52 32.9674H2077.39L2073.13 22.2314H2075.99L2078.33 28.3665L2080.62 22.2314H2083.01L2085.28 28.3665L2087.63 22.2314H2090.49L2086.24 32.9674H2084.1L2081.81 26.8541L2079.52 32.9674Z" fill="#9193A8"/>
<path d="M2090.53 31.7531H2090.28V32.2076H2090.08V30.9639H2090.58C2090.63 30.9636 2090.69 30.9738 2090.73 30.9939C2090.78 31.0139 2090.83 31.0434 2090.86 31.0806C2090.9 31.1178 2090.93 31.1619 2090.95 31.2106C2090.97 31.2592 2090.98 31.3113 2090.98 31.3639C2090.98 31.4419 2090.96 31.518 2090.91 31.5824C2090.87 31.6468 2090.81 31.6966 2090.73 31.7255L2091.02 32.2101H2090.79L2090.53 31.7531ZM2090.28 31.5698H2090.58C2090.64 31.5698 2090.69 31.5478 2090.73 31.5086C2090.77 31.4693 2090.79 31.4161 2090.79 31.3606C2090.79 31.3051 2090.77 31.2519 2090.73 31.2126C2090.69 31.1734 2090.64 31.1514 2090.58 31.1514H2090.29L2090.28 31.5698Z" fill="#9193A8"/>
<path d="M2090.5 30.4539C2090.73 30.4538 2090.95 30.5213 2091.14 30.6481C2091.33 30.7748 2091.48 30.955 2091.56 31.1659C2091.65 31.3768 2091.68 31.6089 2091.63 31.8328C2091.59 32.0568 2091.48 32.2625 2091.31 32.424C2091.15 32.5855 2090.95 32.6955 2090.72 32.7401C2090.5 32.7847 2090.27 32.7619 2090.06 32.6746C2089.85 32.5872 2089.67 32.4393 2089.54 32.2495C2089.41 32.0596 2089.34 31.8365 2089.34 31.6081C2089.34 31.3023 2089.47 31.0091 2089.68 30.7928C2089.9 30.5765 2090.19 30.4546 2090.5 30.4539ZM2090.5 30.2715C2090.23 30.2715 2089.97 30.35 2089.75 30.4972C2089.53 30.6443 2089.36 30.8535 2089.26 31.0982C2089.16 31.3429 2089.13 31.6121 2089.18 31.8719C2089.24 32.1317 2089.36 32.3703 2089.55 32.5576C2089.74 32.7449 2089.98 32.8724 2090.24 32.9241C2090.5 32.9758 2090.77 32.9493 2091.01 32.8479C2091.25 32.7465 2091.46 32.5749 2091.61 32.3547C2091.76 32.1344 2091.84 31.8755 2091.84 31.6107C2091.84 31.2555 2091.7 30.9149 2091.44 30.6637C2091.19 30.4126 2090.85 30.2715 2090.5 30.2715Z" fill="#9193A8"/>
</g>
<path d="M2245.07 18.6526V24.2729H2252.57V18.6526H2256.31V32.7354H2252.57V26.5467H2248.8H2245.07V32.7354H2241.33V25.7114V18.6526H2245.07Z" fill="#9193A8"/>
<path d="M2209.74 18.6526V21.0619H2204.04V32.7354H2200.3V21.0619H2194.63V18.6526H2209.74Z" fill="#9193A8"/>
<path d="M2224.19 32.7354H2220.05L2218.85 29.7241H2211.88L2211.24 31.2297L2210.64 32.7354H2206.51L2213.08 18.6526H2217.62L2224.19 32.7354ZM2215.35 21.0619L2212.75 27.4503H2217.95L2215.35 21.0619Z" fill="#9193A8"/>
<path d="M2259.24 32.7354H2262.98V18.654H2259.24V32.7354Z" fill="#9193A8"/>
<path d="M2175.39 18.6526V24.2729H2182.89V18.6526H2186.63V32.7354H2182.89V26.5467H2179.16H2175.39V32.7354H2171.65L2171.68 25.7114L2171.65 18.6526H2175.39Z" fill="#9193A8"/>
<path d="M2189.56 32.7354H2193.3V18.654H2189.56V32.7354Z" fill="#9193A8"/>
<path d="M2224.05 28.8217L2223.85 28.1192L2223.69 27.3831L2223.59 26.6136L2223.55 25.844L2223.59 25.2755L2223.62 24.7406L2223.69 24.2057L2223.79 23.6707L2223.92 23.1693L2224.09 22.6665L2224.29 22.1986L2224.52 21.7307L2224.82 21.295L2225.15 20.8606L2225.52 20.4933L2225.89 20.1246L2226.32 19.7907L2226.76 19.5226L2227.22 19.2558L2227.72 19.0547L2228.22 18.8871L2228.72 18.7195L2229.22 18.5868L2229.72 18.4862L2230.26 18.4192L2230.79 18.3522L2231.33 18.3186L2231.86 18.2851L2232.49 18.3186L2233.09 18.3522L2233.69 18.4527L2234.29 18.5533L2234.86 18.7195L2235.43 18.8871L2235.99 19.0547L2236.56 19.288L2237.03 19.5226L2237.5 19.8243L2237.9 20.1916L2238.26 20.5925L2238.6 21.0282L2238.86 21.4961L2239.06 21.9975L2239.2 22.5338L2239.3 23.0017L2239.33 23.4361H2235.43V23.1693L2235.36 22.9012L2235.33 22.5995L2235.23 22.3662L2235.09 22.0646L2234.96 21.7978L2234.76 21.5631L2234.56 21.3285L2234.33 21.1623L2234.06 20.9612L2233.79 20.8271L2233.49 20.7265L2233.09 20.626L2232.69 20.5603L2232.29 20.4933H2231.86H2231.39L2230.89 20.5603L2230.46 20.6595L2230.02 20.7936L2229.66 20.9612L2229.32 21.1288L2229.02 21.362L2228.76 21.5967L2228.52 21.897L2228.29 22.1986L2228.12 22.5338L2227.99 22.8676L2227.76 23.5702L2227.59 24.3062L2227.49 25.0758L2227.46 25.844L2227.49 26.4795L2227.56 27.115L2227.69 27.7183L2227.82 28.3203L2227.96 28.6876L2228.12 29.0563L2228.32 29.3566L2228.59 29.6583L2228.86 29.9251L2229.16 30.1597L2229.49 30.3608L2229.86 30.5271L2230.32 30.6946L2230.82 30.7952L2231.33 30.8957H2231.86H2232.29L2232.73 30.8287L2233.16 30.7617L2233.56 30.6276L2233.83 30.5271L2234.09 30.393L2234.33 30.2603L2234.56 30.0927L2234.76 29.8916L2234.93 29.6583L2235.06 29.4237L2235.19 29.189L2235.33 28.8217L2235.43 28.453L2235.5 28.0521V27.6513H2239.43L2239.36 28.3538L2239.23 28.9893L2239.1 29.5242L2238.86 29.9921L2238.6 30.46L2238.3 30.8622L2237.93 31.2631L2237.53 31.5983L2237.1 31.8651L2236.63 32.0997L2236.09 32.3343L2235.5 32.5341L2234.93 32.7017L2234.33 32.8357L2233.73 32.9363L2233.13 33.0355L2232.49 33.069L2231.86 33.1025L2230.89 33.0355L2229.92 32.9363L2228.99 32.7687L2228.09 32.5006L2227.42 32.2673L2226.79 31.9321L2226.19 31.5648L2225.62 31.129L2225.39 30.8957L2225.12 30.6276L2224.92 30.3608L2224.69 30.0927L2224.52 29.791L2224.35 29.4907L2224.19 29.1555L2224.05 28.8217Z" fill="#9193A8"/>
<path fill-rule="evenodd" clip-rule="evenodd" d="M2379.52 30.27H2381.97L2376.17 17.7352H2374.03L2368.23 30.27H2370.6L2371.96 27.2666H2378.19L2379.52 30.27ZM2372.81 25.3286L2375.06 20.3486L2377.34 25.3286H2372.81Z" fill="#9193A8"/>
<path d="M2403.33 30.27H2401.03V19.7768H2396.9V17.7352H2407.65L2406.76 19.7768H2403.33V30.27Z" fill="#9193A8"/>
<path d="M2447.06 19.7768H2439.88V22.9646H2444.48V24.9363H2439.88V28.2672H2447.06V30.27H2437.51V17.7352H2447.06V19.7768Z" fill="#9193A8"/>
<path d="M2463.78 30.27H2461.4V17.7352H2463.78V30.27Z" fill="#9193A8"/>
<path d="M2454.11 19.7759C2452.74 19.7759 2451.57 20.1675 2451.56 21.0268C2451.56 22.0331 2452.23 22.382 2454.75 23.1572C2457.54 24.0233 2459.02 24.904 2459.01 27.0467C2458.99 29.4621 2457.02 30.8397 2454.13 30.8397C2452.08 30.8397 2450.25 30.2137 2448.85 29.0537L2449.72 27.0658C2450.99 28.0687 2452.53 28.78 2454.19 28.7867C2455.64 28.7935 2456.68 28.126 2456.68 27.1376C2456.68 26.3108 2456.17 25.7611 2453.72 25.0285C2450.91 24.159 2449.21 23.2526 2449.23 21.093C2449.25 18.9446 2451.38 17.7229 2454.06 17.7353C2456.75 17.7476 2458.26 18.6743 2458.49 18.7999L2457.64 20.6072C2457.1 20.3279 2455.9 19.7759 2454.11 19.7759Z" fill="#9193A8"/>
<path d="M2466.09 23.8023L2472.11 17.7352H2469.22L2463.19 23.8023L2469.82 30.27H2472.74L2466.09 23.8023Z" fill="#9193A8"/>
<path fill-rule="evenodd" clip-rule="evenodd" d="M2407.65 24.2886C2407.65 20.6698 2410.72 17.7352 2414.52 17.7352C2418.31 17.7352 2421.38 20.6698 2421.38 24.2886C2421.38 27.9073 2418.31 30.8397 2414.52 30.8397C2410.72 30.8397 2407.65 27.9073 2407.65 24.2886ZM2410 24.2886C2410 26.7781 2411.91 28.7955 2414.52 28.7955C2417.12 28.7955 2419.03 26.7781 2419.03 24.2886C2419.03 21.7991 2417.12 19.7806 2414.52 19.7806C2411.91 19.7806 2410 21.7991 2410 24.2886Z" fill="#9193A8"/>
<path fill-rule="evenodd" clip-rule="evenodd" d="M2423.77 17.7352H2428.83C2432.63 17.7352 2435.72 20.4048 2435.72 23.9854C2435.72 27.5648 2432.63 30.2689 2428.83 30.2689L2423.77 30.27V17.7352ZM2426.14 28.2665L2428.83 28.2643C2431.44 28.2643 2433.36 26.4479 2433.36 23.9858C2433.36 21.5236 2431.46 19.7783 2428.84 19.7783H2426.14V28.2665Z" fill="#9193A8"/>
<path d="M2393.91 24.6072C2393.91 28.2863 2391.6 30.27 2388.24 30.27C2384.88 30.27 2382.57 28.2863 2382.57 24.6072V17.7352H2384.91V24.8672C2384.91 27.0257 2386.27 28.2928 2388.24 28.2928C2390.21 28.2928 2391.57 27.0257 2391.57 24.8672V17.7352H2393.91V24.6072Z" fill="#9193A8"/>
<path d="M2344.61 35.9676C2343.96 35.9676 2343.63 35.732 2343.31 35.1845L2340.37 29.9071C2340.17 29.5289 2340.16 29.4029 2340.16 29.1305L2344.78 29.3277L2345.84 30.3517H2355.09L2347.41 34.968C2347.03 35.1829 2345.61 35.9676 2344.61 35.9676Z" fill="#9193A8"/>
<path d="M2345.96 30.2698H2341.88C2340.65 30.2698 2340.16 29.6718 2340.16 29.0754C2340.16 28.6979 2340.3 28.4921 2340.48 28.0726L2346.42 14.9042L2346.48 14.7886L2346.57 14.6701L2346.74 14.5153L2346.99 14.3908L2347.35 14.3164L2347.98 14.3315L2352.11 15.7562L2350.71 19.8436L2345.96 30.2698Z" fill="#9193A8"/>
<path fill-rule="evenodd" clip-rule="evenodd" d="M2357.57 35.9676L2348.26 15.183C2348.1 14.8291 2347.84 14.3725 2347.18 14.3725C2346.58 14.3725 2346.3 14.644 2346.14 14.9358C2346.22 14.7254 2346.47 14.3166 2347.2 14.3166H2353.63C2354.22 14.3166 2354.5 14.6454 2354.63 14.9464L2364.05 35.9676H2357.57Z" fill="#9193A8"/>
<defs>
<clipPath id="clip0_7565_27778">
<rect width="71.8131" height="49.7168" fill="white" transform="translate(122.208 0.283203)"/>
</clipPath>
<clipPath id="clip1_7565_27778">
<rect width="55.2409" height="49.7168" fill="white" transform="translate(271.021 0.283203)"/>
</clipPath>
<clipPath id="clip2_7565_27778">
<rect width="80" height="20.7812" fill="white" transform="translate(1002.8 14.2832)"/>
</clipPath>
<clipPath id="clip3_7565_27778">
<rect width="66.2891" height="49.7168" fill="white" transform="translate(1318.57 0.283203)"/>
</clipPath>
<clipPath id="clip4_7565_27778">
<rect width="77.3372" height="49.7168" fill="white" transform="translate(1827.99 0.283203)"/>
</clipPath>
<clipPath id="clip5_7565_27778">
<rect width="110.482" height="16.7397" fill="white" transform="translate(1981.77 16.7715)"/>
</clipPath>
</defs>
</svg>
